<?xml version="1.0" encoding="UTF-8"?>
<svg version="1.1" xmlns="http://www.w3.org/2000/svg" width="778" height="321">
<path d="M0 0 C4.62 0 9.24 0 14 0 C14 1.32 14 2.64 14 4 C15.134375 3.34 16.26875 2.68 17.4375 2 C22.03885675 -0.26017347 25.93827679 -1.03109176 31 0 C34.19007186 1.40111059 37.09714572 3.07848889 40 5 C40.763125 4.360625 41.52625 3.72125 42.3125 3.0625 C46.63723979 -0.25648635 50.70437381 -0.52566878 56 0 C60.32526424 1.29757927 62.4536938 2.35305845 65.375 5.8125 C68.16540034 11.28597759 68.14278372 16.76412217 68.09765625 22.8046875 C68.0962413 23.5286673 68.09482635 24.25264709 68.09336853 24.99856567 C68.08781075 27.29075407 68.07526633 29.58284157 68.0625 31.875 C68.05747953 33.43749858 68.05291759 34.99999871 68.04882812 36.5625 C68.03870984 40.3750693 68.01912664 44.1874229 68 48 C63.05 48 58.1 48 53 48 C52.94392578 44.56980469 52.94392578 44.56980469 52.88671875 41.0703125 C52.840528 38.85943954 52.78928575 36.64873757 52.73754883 34.43798828 C52.7042627 32.89968221 52.67624222 31.36125293 52.65356445 29.82275391 C52.62008442 27.61307182 52.5677769 25.40452265 52.51171875 23.1953125 C52.50532883 22.50567413 52.4989389 21.81603577 52.49235535 21.10549927 C52.45974286 18.95314611 52.45974286 18.95314611 52 16 C49.23011924 13.68456793 49.23011924 13.68456793 46.375 14.3125 C44.06498035 14.7741514 44.06498035 14.7741514 43 16 C42.84028023 18.37338639 42.7407567 20.72118272 42.68359375 23.09765625 C42.66281265 23.80651474 42.64203156 24.51537323 42.62062073 25.24571228 C42.55505402 27.51787305 42.4962077 29.79015264 42.4375 32.0625 C42.39432151 33.59962183 42.35070745 35.1367315 42.30664062 36.67382812 C42.19854266 40.44909856 42.09952363 44.22445466 42 48 C37.05 48 32.1 48 27 48 C27 37.11 27 26.22 27 15 C21.30569002 13.6411465 21.30569002 13.6411465 17 15 C16.67 25.89 16.34 36.78 16 48 C11.38 48 6.76 48 2 48 C2 36.45 2 24.9 2 13 C-0.31 13 -2.62 13 -5 13 C-4.38621882 8.08975054 -2.27516294 4.33014883 0 0 Z " fill="#373737" transform="translate(441,155)"/>
<path d="M0 0 C1.32064453 0.13921875 1.32064453 0.13921875 2.66796875 0.28125 C3.32796875 1.60125 3.98796875 2.92125 4.66796875 4.28125 C5.26609375 3.806875 5.86421875 3.3325 6.48046875 2.84375 C10.5669946 -0.07519703 14.79877884 -0.25362313 19.66796875 0.28125 C22.99727098 1.66322451 25.67181878 3.28381668 28.66796875 5.28125 C29.14105469 4.9203125 29.61414063 4.559375 30.1015625 4.1875 C35.3185989 0.52642182 39.31929565 -0.7906039 45.66796875 0.28125 C50.38675563 1.97289058 52.87379692 4.14173618 55.66796875 8.28125 C56.94182002 12.1028038 56.79150063 15.6880947 56.765625 19.66796875 C56.76421005 20.48497757 56.7627951 21.30198639 56.76133728 22.14375305 C56.75574169 24.75212268 56.74319004 27.36040634 56.73046875 29.96875 C56.72545318 31.73762897 56.72089037 33.50650928 56.71679688 35.27539062 C56.70577371 39.61071019 56.68851213 43.94596552 56.66796875 48.28125 C52.04796875 48.28125 47.42796875 48.28125 42.66796875 48.28125 C42.33796875 37.39125 42.00796875 26.50125 41.66796875 15.28125 C35.97365877 13.9223965 35.97365877 13.9223965 31.66796875 15.28125 C31.33796875 26.17125 31.00796875 37.06125 30.66796875 48.28125 C26.04796875 48.28125 21.42796875 48.28125 16.66796875 48.28125 C16.33796875 37.39125 16.00796875 26.50125 15.66796875 15.28125 C11.31852606 14.41136146 9.6966835 14.24529478 5.66796875 15.28125 C5.67582397 16.56757324 5.67582397 16.56757324 5.68383789 17.87988281 C5.70091027 21.07047273 5.7134338 24.26103931 5.72290039 27.45166016 C5.72791993 28.83089973 5.73473694 30.21013402 5.7434082 31.58935547 C5.75557795 33.57517183 5.76068508 35.56102749 5.765625 37.546875 C5.77348022 39.33786621 5.77348022 39.33786621 5.78149414 41.16503906 C5.66796875 44.28125 5.66796875 44.28125 4.66796875 48.28125 C0.04796875 48.28125 -4.57203125 48.28125 -9.33203125 48.28125 C-9.33203125 36.73125 -9.33203125 25.18125 -9.33203125 13.28125 C-11.64203125 13.28125 -13.95203125 13.28125 -16.33203125 13.28125 C-15.93880092 9.08679317 -14.49874455 5.42728191 -12.2734375 1.88671875 C-8.69149076 -1.07541427 -4.42793285 -0.27521003 0 0 Z " fill="#303030" transform="translate(373.33203125,154.71875)"/>
<path d="M0 0 C0.71671875 -0.01224609 1.4334375 -0.02449219 2.171875 -0.03710938 C10.10260693 -0.05858248 17.09854559 1.54367667 23.625 6.1875 C25.29707959 8.4524078 26.39201403 10.62668298 27.625 13.1875 C28.12 14.1775 28.12 14.1775 28.625 15.1875 C29.38660558 23.19900487 28.20933402 28.50678186 23.5625 35.125 C22.6034375 36.1459375 22.6034375 36.1459375 21.625 37.1875 C20.965 37.1875 20.305 37.1875 19.625 37.1875 C23.32373992 44.96326007 27.41461634 52.25572749 32.0859375 59.47265625 C33.625 62.1875 33.625 62.1875 33.625 65.1875 C27.87840168 66.69024242 22.17039816 67.86478938 16.625 65.1875 C9.82900505 57.93895009 4.7572223 47.58416691 1.625 38.1875 C1.295 47.0975 0.965 56.0075 0.625 65.1875 C-4.325 65.1875 -9.275 65.1875 -14.375 65.1875 C-14.375 44.0675 -14.375 22.9475 -14.375 1.1875 C-9.37644776 0.35440796 -5.0045448 0.00445244 0 0 Z M0.625 13.1875 C0.625 20.1175 0.625 27.0475 0.625 34.1875 C8.19721257 30.94700805 8.19721257 30.94700805 12.625 25.1875 C12.64054824 22.1089491 12.2291139 19.20150302 11.625 16.1875 C10.5525 15.6925 9.48 15.1975 8.375 14.6875 C7.77171875 14.4090625 7.1684375 14.130625 6.546875 13.84375 C4.33257164 12.97207076 4.33257164 12.97207076 0.625 13.1875 Z " fill="#333333" transform="translate(578.375,137.8125)"/>
<path d="M0 0 C0.495 0.99 0.495 0.99 1 2 C-0.21484375 4.3828125 -0.21484375 4.3828125 -1.9375 7.125 C-2.50339844 8.03507813 -3.06929688 8.94515625 -3.65234375 9.8828125 C-4.31943359 10.93082031 -4.31943359 10.93082031 -5 12 C-5.95261719 11.82082031 -6.90523438 11.64164063 -7.88671875 11.45703125 C-9.14097656 11.24433594 -10.39523437 11.03164062 -11.6875 10.8125 C-12.92886719 10.59207031 -14.17023438 10.37164062 -15.44921875 10.14453125 C-19.39983314 9.98372516 -20.90094905 10.64756553 -24 13 C-24.18644201 15.39766475 -24.18644201 15.39766475 -23 18 C-20.27783619 19.68159346 -17.30187177 20.69575216 -14.3125 21.8125 C-8.15589089 24.31236547 -3.37672055 26.27497393 0.22265625 32.140625 C2.56126382 37.7344803 2.76232524 43.30115198 0.8125 49.0625 C-1.43077016 54.44634839 -4.11593448 57.98818703 -9.375 60.8125 C-15.62515621 62.85996496 -21.53949003 63.15962765 -28.0625 62.75 C-28.74376953 62.72292969 -29.42503906 62.69585937 -30.12695312 62.66796875 C-34.73161734 62.39372362 -38.02338362 61.30780233 -42 59 C-41.48041715 54.62065881 -40.94324258 50.31196609 -40 46 C-38.948125 46.165 -37.89625 46.33 -36.8125 46.5 C-25.93844393 48.08025433 -25.93844393 48.08025433 -16 45 C-14.91431497 43.15732132 -14.91431497 43.15732132 -15 41 C-17.97751226 37.3090496 -20.94081869 36.05606457 -25.375 34.5625 C-31.97039366 32.1567728 -36.04377817 29.93433275 -40 24 C-41.65464676 16.36727462 -40.84739597 9.87034995 -37 3 C-36.34 3 -35.68 3 -35 3 C-35 2.34 -35 1.68 -35 1 C-25.80624069 -5.38455508 -9.90932622 -4.89848779 0 0 Z " fill="#2F2F2F" transform="translate(305,141)"/>
<path d="M0 0 C4.95 0 9.9 0 15 0 C15.04898437 2.11921875 15.09796875 4.2384375 15.1484375 6.421875 C15.20249024 8.48053886 15.2597807 10.539089 15.31738281 12.59765625 C15.35560024 14.02530398 15.39046572 15.45304563 15.421875 16.88085938 C15.46768401 18.93653868 15.5256498 20.99157554 15.5859375 23.046875 C15.6173584 24.28276367 15.6487793 25.51865234 15.68115234 26.79199219 C15.94460379 30.79304546 15.94460379 30.79304546 18 34 C20.64 34.33 23.28 34.66 26 35 C26 23.45 26 11.9 26 0 C30.95 0 35.9 0 41 0 C41 14.85 41 29.7 41 45 C34.01057956 47.62103267 30.48195323 48.49913843 23.5 48.4375 C22.69691406 48.45748047 21.89382813 48.47746094 21.06640625 48.49804688 C14.57353365 48.49278523 9.23514573 46.92242134 4.34570312 42.50561523 C-0.48053164 37.10587108 -0.12794696 28.7880664 -0.09765625 21.97265625 C-0.09443359 20.68681641 -0.09121094 19.40097656 -0.08789062 18.07617188 C-0.07953802 16.73828055 -0.07107311 15.40038993 -0.0625 14.0625 C-0.05747659 12.69726726 -0.05291517 11.33203274 -0.04882812 9.96679688 C-0.0370886 6.64451212 -0.01915455 3.32225028 0 0 Z " fill="#363636" transform="translate(313,155)"/>
<path d="M0 0 C5.47166829 3.23532253 7.83781277 7.2655775 9.5 13.3125 C9.75078639 17.99718983 9.5886078 22.6162865 9.5 27.3125 C0.92 27.6425 -7.66 27.9725 -16.5 28.3125 C-16.17 29.9625 -15.84 31.6125 -15.5 33.3125 C-11.48051348 33.59206758 -11.48051348 33.59206758 -7.5 33.3125 C-6.736875 32.590625 -5.97375 31.86875 -5.1875 31.125 C-2.5 29.3125 -2.5 29.3125 0.25 29.71484375 C3.04202995 30.48763775 5.77230219 31.33798099 8.5 32.3125 C6.92330281 38.47595264 4.07307304 41.44702204 -1 45.125 C-8.05801041 47.5196821 -15.78653558 47.6331713 -22.5625 44.3125 C-27.87178142 40.87364432 -29.70078296 36.37616533 -31.25 30.4375 C-32.04545424 20.49432202 -32.13746932 11.4249625 -25.5 3.3125 C-18.0741547 -2.29477094 -8.72230128 -4.0736925 0 0 Z M-16.5 13.3125 C-16.5 14.3025 -16.5 15.2925 -16.5 16.3125 C-12.87 16.3125 -9.24 16.3125 -5.5 16.3125 C-5.83 14.6625 -6.16 13.0125 -6.5 11.3125 C-12.08664846 10.70828469 -12.08664846 10.70828469 -16.5 13.3125 Z " fill="#383838" transform="translate(710.5,156.6875)"/>
<path d="M0 0 C3.82218984 2.54333685 5.87319249 5.12706058 7.30639648 9.51660156 C7.92055056 12.69519534 7.86092014 15.74798541 7.84765625 18.984375 C7.8462413 19.6667926 7.84482635 20.34921021 7.84336853 21.05230713 C7.83779084 23.22241684 7.82524254 25.3924217 7.8125 27.5625 C7.80748211 29.03775892 7.80291971 30.51301947 7.79882812 31.98828125 C7.78782875 35.59638798 7.77057953 39.20443375 7.75 42.8125 C1.61096362 45.65100448 -2.99074108 46.30258264 -9.75 46.25 C-11.11705078 46.2799707 -11.11705078 46.2799707 -12.51171875 46.31054688 C-18.6362525 46.30612802 -22.24529578 45.38169584 -27.25 41.8125 C-30.58825547 38.21745565 -31.50403813 35.53866712 -31.625 30.75 C-31.48079052 27.07265833 -31.00760607 24.10801139 -29.25 20.8125 C-28.59 20.8125 -27.93 20.8125 -27.25 20.8125 C-27.25 20.1525 -27.25 19.4925 -27.25 18.8125 C-20.61270688 15.28899871 -14.736774 14.0923794 -7.25 13.8125 C-7.25 13.1525 -7.25 12.4925 -7.25 11.8125 C-8.52617188 11.84730469 -9.80234375 11.88210937 -11.1171875 11.91796875 C-12.78644521 11.94610231 -14.4557171 11.97340293 -16.125 12 C-17.38763672 12.03770508 -17.38763672 12.03770508 -18.67578125 12.07617188 C-19.48144531 12.08583984 -20.28710938 12.09550781 -21.1171875 12.10546875 C-22.23262939 12.12903442 -22.23262939 12.12903442 -23.37060547 12.15307617 C-23.99080566 12.04068604 -24.61100586 11.9282959 -25.25 11.8125 C-27.81616632 7.96325052 -27.80097676 5.3775696 -28.25 0.8125 C-19.65712203 -3.39625656 -8.6986729 -4.51305942 0 0 Z M-17.25 26.8125 C-17.41687448 29.22895782 -17.41687448 29.22895782 -17.25 31.8125 C-15.46342243 34.02620051 -15.46342243 34.02620051 -13.0859375 34.0078125 C-10.80729167 33.94270833 -8.52864583 33.87760417 -6.25 33.8125 C-6.25 30.8425 -6.25 27.8725 -6.25 24.8125 C-12.0474423 24.56821657 -12.0474423 24.56821657 -17.25 26.8125 Z " fill="#353535" transform="translate(548.25,157.1875)"/>
<path d="M0 0 C3.58695523 1.52396837 4.94342077 5.42052637 6.72558594 8.71435547 C7.70026516 10.45629599 8.67694714 12.19711689 9.65527344 13.93701172 C10.18475586 14.88463379 10.71423828 15.83225586 11.25976562 16.80859375 C14.37209116 22.3060908 17.61813419 27.72442424 20.85058594 33.15185547 C24.84829192 39.8733713 28.84099686 46.59735774 32.78417969 53.35107422 C33.67290771 54.86930786 33.67290771 54.86930786 34.57958984 56.41821289 C35.69104736 58.31855431 36.79898782 60.22095861 37.90283203 62.12573242 C38.39734863 62.96966553 38.89186523 63.81359863 39.40136719 64.68310547 C39.82844971 65.41722656 40.25553223 66.15134766 40.69555664 66.90771484 C41.95738158 68.81188401 43.30376949 70.29098217 44.97558594 71.83935547 C39.60128721 74.52650483 31.82940461 72.85117264 26.19433594 71.58154297 C19.76877978 69.43214918 16.43288862 62.26985041 12.97558594 56.83935547 C12.40582031 55.96794922 11.83605469 55.09654297 11.24902344 54.19873047 C7.78369936 48.85571978 4.5916989 43.43673056 1.59277344 37.81982422 C-0.65672977 33.67400067 -3.02062157 29.59581359 -5.3972168 25.52172852 C-8.91813453 19.43020238 -10.09517496 14.02505716 -8.33691406 7.15185547 C-4.09339249 -0.3248254 -4.09339249 -0.3248254 0 0 Z " fill="#F5834D" transform="translate(112.0244140625,157.16064453125)"/>
<path d="M0 0 C4.16464838 1.38821613 4.93784657 3.55708567 6.91015625 7.33984375 C9.42084241 13.46807772 9.88062974 19.48205191 7.625 25.75 C4.97500306 31.53766693 1.5578657 36.92987137 -1.7734375 42.34375 C-4.12186842 46.16906989 -6.27861617 50.07828245 -8.3828125 54.04296875 C-9.66766995 56.3923337 -10.99512128 58.69015142 -12.3671875 60.98828125 C-12.78097656 61.69218994 -13.19476563 62.39609863 -13.62109375 63.12133789 C-14.4371133 64.50663277 -15.26470202 65.88519883 -16.10546875 67.25561523 C-18.67918098 71.66508741 -19.52411051 74.76528645 -19 80 C-18.1025173 82.83378132 -18.1025173 82.83378132 -17 85 C-22.55591586 84.8611021 -25.41815163 82.47697155 -29.296875 78.8203125 C-33.05503745 74.80356089 -33.45790551 70.76783771 -33.30859375 65.4453125 C-32.47103143 58.80842625 -29.13764042 53.10208342 -25.78515625 47.421875 C-24.8571521 45.84442505 -24.8571521 45.84442505 -23.91040039 44.23510742 C-23.27996826 43.16752197 -22.64953613 42.09993652 -22 41 C-20.83267128 39.01210737 -19.66599163 37.02383344 -18.5 35.03515625 C-17.63894653 33.5670752 -17.63894653 33.5670752 -16.76049805 32.06933594 C-6.64600525 16.76524388 -6.64600525 16.76524388 0 0 Z " fill="#F68F50" transform="translate(182,143)"/>
<path d="M0 0 C0.66 0 1.32 0 2 0 C2.81837442 1.41328129 3.62946219 2.83078346 4.4375 4.25 C5.11619141 5.43335938 5.11619141 5.43335938 5.80859375 6.640625 C8.3394671 11.65258402 8.92477057 16.78558664 7.3515625 22.25390625 C5.58579499 26.9550736 3.34121997 31.26268355 0.7890625 35.58203125 C0.1705542 36.63237549 -0.4479541 37.68271973 -1.08520508 38.76489258 C-1.7170874 39.83247803 -2.34896973 40.90006348 -3 42 C-4.767956 44.99901665 -6.5344842 47.99885685 -8.29882812 51 C-9.47561392 53.00170872 -10.65530885 55.00171 -11.83789062 57 C-16.92633199 65.67463478 -21.97525666 74.36911778 -25 84 C-25.66 84 -26.32 84 -27 84 C-28.47265625 81.953125 -28.47265625 81.953125 -30.0625 79.25 C-30.58972656 78.36828125 -31.11695313 77.4865625 -31.66015625 76.578125 C-34.25717199 71.58095185 -34.84473709 66.5535191 -34 61 C-30.71816617 52.17926086 -25.17270639 44.08619066 -20.37109375 36.015625 C-18.05779534 32.11707134 -15.8590077 28.16771518 -13.7109375 24.17578125 C-11.22584458 19.56304027 -8.70704532 14.9689911 -6.1875 10.375 C-5.44802124 9.02088013 -5.44802124 9.02088013 -4.69360352 7.6394043 C-4.23139404 6.79676025 -3.76918457 5.95411621 -3.29296875 5.0859375 C-2.8755542 4.3232959 -2.45813965 3.5606543 -2.02807617 2.77490234 C-1 1 -1 1 0 0 Z " fill="#F06B4E" transform="translate(172,125)"/>
<path d="M0 0 C-0.89049189 4.23686665 -2.79447661 7.30041239 -5 11 C-6.26457031 10.85691406 -6.26457031 10.85691406 -7.5546875 10.7109375 C-8.65039062 10.60007813 -9.74609375 10.48921875 -10.875 10.375 C-11.96554687 10.25898438 -13.05609375 10.14296875 -14.1796875 10.0234375 C-15.11039063 10.01570312 -16.04109375 10.00796875 -17 10 C-17.66 10.66 -18.32 11.32 -19 12 C-17.78763672 12.36351562 -17.78763672 12.36351562 -16.55078125 12.734375 C-3.95404627 16.68510009 -3.95404627 16.68510009 -0.90625 21.85546875 C0.87536353 26.07144214 0.70942097 30.60510906 -0.58203125 34.96484375 C-2.67205048 39.32620808 -5.82009867 41.9661377 -10.1015625 44.12109375 C-13.78030821 45.23661637 -17.30984838 45.46880749 -21.125 45.5 C-21.79370117 45.50636475 -22.46240234 45.51272949 -23.15136719 45.51928711 C-28.12789718 45.39235984 -31.61045409 44.14346657 -36 42 C-35.01 38.37 -34.02 34.74 -33 31 C-31.94039062 31.08378906 -30.88078125 31.16757813 -29.7890625 31.25390625 C-28.40106375 31.35706832 -27.01304165 31.45991663 -25.625 31.5625 C-24.92632813 31.61857422 -24.22765625 31.67464844 -23.5078125 31.73242188 C-19.63471135 32.11499904 -19.63471135 32.11499904 -16 31 C-15.67 30.01 -15.34 29.02 -15 28 C-15.73605469 27.81824219 -16.47210937 27.63648438 -17.23046875 27.44921875 C-28.30823152 24.59563389 -28.30823152 24.59563389 -32.75 20.3125 C-34.5560544 16.97129936 -35.11216861 13.75063793 -35 10 C-33.43516885 4.78389616 -31.58080355 1.94480228 -27 -1 C-18.21574379 -5.132019 -8.77798235 -3.26261291 0 0 Z " fill="#393939" transform="translate(674,158)"/>
<path d="M0 0 C-0.79005662 1.43838552 -1.58211045 2.87567415 -2.375 4.3125 C-2.81585938 5.11300781 -3.25671875 5.91351563 -3.7109375 6.73828125 C-4.73513335 8.53527943 -5.85267138 10.27900708 -7 12 C-7.66 12 -8.32 12 -9 12 C-9 12.66 -9 13.32 -9 14 C-14.85966945 17.3467282 -18.95540847 18.57602592 -25.65625 18.390625 C-26.83785706 18.38213531 -26.83785706 18.38213531 -28.04333496 18.37347412 C-30.52954034 18.35129902 -33.01423928 18.30114337 -35.5 18.25 C-37.19789567 18.22991039 -38.89581421 18.21166396 -40.59375 18.1953125 C-44.72973639 18.1514969 -48.8646139 18.08260605 -53 18 C-52.71801758 17.30285889 -52.43603516 16.60571777 -52.14550781 15.88745117 C-51.36966125 13.93179532 -50.65676136 11.9501974 -50.00292969 9.95043945 C-48.4056655 6.17085302 -47.00851713 3.82351547 -44 1 C-37.44904359 -1.32414591 -30.10529102 -0.81774907 -23.25 -0.8125 C-21.33190091 -0.85736687 -19.41391623 -0.90744616 -17.49609375 -0.96289062 C-3.86581463 -1.28860488 -3.86581463 -1.28860488 0 0 Z " fill="#F58750" transform="translate(222,191)"/>
<path d="M0 0 C5.28 0 10.56 0 16 0 C16 15.84 16 31.68 16 48 C11.38 48 6.76 48 2 48 C2 36.45 2 24.9 2 13 C-0.31 13 -2.62 13 -5 13 C-4.38621882 8.08975054 -2.27516294 4.33014883 0 0 Z " fill="#3B3B3B" transform="translate(616,155)"/>
<path d="M0 0 C1.18160706 0.00848969 1.18160706 0.00848969 2.38708496 0.01715088 C4.87329034 0.03932598 7.35798928 0.08948163 9.84375 0.140625 C11.54164567 0.16071461 13.23956421 0.17896104 14.9375 0.1953125 C19.07348639 0.2391281 23.2083639 0.30801895 27.34375 0.390625 C27.06466797 1.08696045 26.78558594 1.7832959 26.49804688 2.50073242 C25.71105199 4.47104936 24.96913402 6.45982728 24.26757812 8.4621582 C22.65555864 12.1279199 21.224816 14.5845646 18.34375 17.390625 C12.51780548 19.4988394 5.93033348 18.79329546 -0.15625 18.578125 C-1.84759734 18.55754624 -3.53902189 18.54252194 -5.23046875 18.53320312 C-7.62224031 18.51988908 -10.01058098 18.49928186 -12.40148926 18.43266296 C-16.95528772 18.31345007 -21.16293537 18.62337452 -25.65625 19.390625 C-22.58876241 11.21065808 -18.9007282 5.1325395 -10.90397644 1.24113464 C-7.25579962 -0.13928671 -3.85912834 -0.10677554 0 0 Z " fill="#F58B4E" transform="translate(137.65625,132.609375)"/>
<path d="M0 0 C1.57032423 3.82766532 0.929548 7.46770101 0 11.4375 C-0.66 12.7575 -1.32 14.0775 -2 15.4375 C-16.19 15.7675 -30.38 16.0975 -45 16.4375 C-36.8 0.0375 -36.8 0.0375 -29 -2.5625 C-25.76025506 -2.93434307 -22.50563669 -3.07458854 -19.25 -3.25 C-17.92742187 -3.33991211 -17.92742187 -3.33991211 -16.578125 -3.43164062 C-10.58896824 -3.75694453 -4.94605672 -3.86410681 0 0 Z " fill="#F78C4E" transform="translate(169,115.5625)"/>
<path d="M0 0 C-3.32204646 6.83879162 -6.43631992 12.83611578 -13 17 C-17.9886265 18.6628755 -23.15103996 18.31028878 -28.375 18.375 C-29.51195312 18.41238281 -30.64890625 18.44976562 -31.8203125 18.48828125 C-40.15215435 18.57629366 -40.15215435 18.57629366 -44.29296875 15.76171875 C-46.11098472 12.82044348 -46.53618231 11.77965851 -45.9375 8.4375 C-45.82277344 7.69371094 -45.70804688 6.94992188 -45.58984375 6.18359375 C-44.98006953 3.92621767 -44.07049189 2.07124578 -43 0 C-37.35849247 -0.16759211 -31.71684548 -0.32815426 -26.07495117 -0.48217773 C-24.15529992 -0.53557803 -22.23570129 -0.59090586 -20.31616211 -0.64819336 C-17.55854641 -0.73015919 -14.80081636 -0.80521256 -12.04296875 -0.87890625 C-11.18350143 -0.90594131 -10.32403412 -0.93297638 -9.43852234 -0.96083069 C-8.63791885 -0.98092697 -7.83731537 -1.00102325 -7.01245117 -1.02172852 C-5.95655037 -1.05170677 -5.95655037 -1.05170677 -4.87931824 -1.08229065 C-3 -1 -3 -1 0 0 Z " fill="#F27C4E" transform="translate(210,211)"/>
<path d="M0 0 C0.66 0 1.32 0 2 0 C2.81837442 1.41328129 3.62946219 2.83078346 4.4375 4.25 C5.11619141 5.43335938 5.11619141 5.43335938 5.80859375 6.640625 C8.3394671 11.65258402 8.92477057 16.78558664 7.3515625 22.25390625 C5.58882267 26.94701272 3.34959803 31.2472855 0.80078125 35.55859375 C0.18275635 36.60797119 -0.43526855 37.65734863 -1.07202148 38.73852539 C-1.70825439 39.81481201 -2.3444873 40.89109863 -3 42 C-4.81690412 45.09660501 -6.63115035 48.19475676 -8.4453125 51.29296875 C-9.66264705 53.37192321 -10.88143026 55.45003 -12.1015625 57.52734375 C-12.69195312 58.53667969 -13.28234375 59.54601562 -13.890625 60.5859375 C-14.41688477 61.4836084 -14.94314453 62.3812793 -15.48535156 63.30615234 C-17.08971242 66.15955623 -18.55848228 69.06143864 -20 72 C-20.33 70.68 -20.66 69.36 -21 68 C-20.34 68 -19.68 68 -19 68 C-19 66.68 -19 65.36 -19 64 C-18.34 64 -17.68 64 -17 64 C-17 62.02 -17 60.04 -17 58 C-16.01 58 -15.02 58 -14 58 C-14.33 56.68 -14.66 55.36 -15 54 C-13.02 53.505 -13.02 53.505 -11 53 C-10.95101562 52.33613281 -10.90203125 51.67226562 -10.8515625 50.98828125 C-10.10896309 42.21792619 -10.10896309 42.21792619 -8 38 C-8.66 38 -9.32 38 -10 38 C-10.33 38.66 -10.66 39.32 -11 40 C-12.75561509 36.97758814 -13.20963086 34.91567342 -13.0625 31.4375 C-12.94746946 28.47171272 -13.039379 26.881863 -14 24 C-12.71304328 21.33416108 -11.37805543 18.85189548 -9.875 16.3125 C-9.45919678 15.59513672 -9.04339355 14.87777344 -8.61499023 14.13867188 C-7.42027613 12.08619639 -6.21149733 10.04259815 -5 8 C-4.45730469 7.06542969 -3.91460937 6.13085938 -3.35546875 5.16796875 C-2.30341646 3.40395359 -1.16360159 1.6925114 0 0 Z " fill="#F79E53" transform="translate(172,125)"/>
<path d="M0 0 C3.3 0 6.6 0 10 0 C10.50599731 0.92897095 10.50599731 0.92897095 11.0222168 1.87670898 C12.57692795 4.73051497 14.13221069 7.58400907 15.6875 10.4375 C16.21794922 11.41138672 16.74839844 12.38527344 17.29492188 13.38867188 C17.82021484 14.35224609 18.34550781 15.31582031 18.88671875 16.30859375 C19.40540527 17.26749512 19.9240918 18.22639648 20.45849609 19.21435547 C21.45409805 21.01350313 22.48125586 22.79570677 23.54541016 24.55517578 C24.01124512 25.33231934 24.47708008 26.10946289 24.95703125 26.91015625 C25.37573486 27.58312744 25.79443848 28.25609863 26.22583008 28.94946289 C27 31 27 31 26 36 C20.39 36 14.78 36 9 36 C7.51762714 33.39761208 6.03899869 30.79321772 4.5625 28.1875 C4.14162109 27.44951172 3.72074219 26.71152344 3.28710938 25.95117188 C2.88427734 25.23896484 2.48144531 24.52675781 2.06640625 23.79296875 C1.69459229 23.1383667 1.32277832 22.48376465 0.93969727 21.80932617 C-1.06369582 17.95192264 -0.91600258 15.82668666 0 11.6875 C0.837942 7.4754449 1.14010178 4.21837657 0 0 Z " fill="#F47C4E" transform="translate(192,153)"/>
<path d="M0 0 C0.76086914 0.00418945 1.52173828 0.00837891 2.30566406 0.01269531 C10.48141349 0.17697929 16.704895 1.60049027 22.8125 7.3125 C24.61328125 10.546875 24.61328125 10.546875 26.125 14.0625 C26.63675781 15.23296875 27.14851563 16.4034375 27.67578125 17.609375 C28.05089844 18.50140625 28.42601562 19.3934375 28.8125 20.3125 C27.46285156 20.05146484 27.46285156 20.05146484 26.0859375 19.78515625 C22.6605952 19.28315158 19.43018059 19.37285017 15.9765625 19.55859375 C-0.80522414 20.19958689 -0.80522414 20.19958689 -5.22412109 16.69921875 C-8.66119505 12.37796617 -10.54306373 7.54051066 -12.1875 2.3125 C-8.37027822 -0.20225766 -4.41063478 -0.03258618 0 0 Z " fill="#F38351" transform="translate(193.1875,131.6875)"/>
<path d="M0 0 C3.31232698 -0.08834684 6.62434435 -0.14083584 9.9375 -0.1875 C10.86369141 -0.21263672 11.78988281 -0.23777344 12.74414062 -0.26367188 C19.76264053 -0.33755082 26.93130694 0.10178989 32.25 5.125 C39 16.21428571 39 16.21428571 39 19 C11.91896303 20.62422623 11.91896303 20.62422623 5.63232422 16.41455078 C1.93615251 12.19884944 0.15873864 7.42869054 -1 2 C-0.67 1.34 -0.34 0.68 0 0 Z " fill="#F4824F" transform="translate(171,113)"/>
<path d="M0 0 C15.04170765 -1.52278255 15.04170765 -1.52278255 19.546875 1.98046875 C21.32212999 4.5765828 22.6822566 7.14766936 24 10 C24.84711671 11.27554355 25.70025795 12.54713179 26.5625 13.8125 C28 17 28 17 27.5 19.5625 C26 22 26 22 24 24.75 C21.54787466 28.73470369 20.77112592 32.43412286 20 37 C19.34 37 18.68 37 18 37 C17.49210937 36.10539062 16.98421875 35.21078125 16.4609375 34.2890625 C13.27224868 28.68396974 10.07931442 23.08574726 6.75 17.5625 C6.27820313 16.77488281 5.80640625 15.98726562 5.3203125 15.17578125 C4.47798616 13.78768725 3.62006397 12.4088573 2.7421875 11.04296875 C0.29207281 7.11079168 -0.16601858 4.57189629 0 0 Z " fill="#F58D53" transform="translate(116,153)"/>
<path d="M0 0 C14.8682103 -1.06442869 14.8682103 -1.06442869 19.83984375 1.41796875 C23.9485216 5.0063671 26.67970156 8.45109876 27.37109375 13.953125 C27.50373603 20.53842389 27.21245825 25.14075037 23.38671875 30.609375 C22 32 22 32 19 33 C14.30392079 26.21606068 10.15589258 19.19541685 6.125 12 C5.53203125 10.95199219 4.9390625 9.90398437 4.328125 8.82421875 C0 1.13531466 0 1.13531466 0 0 Z " fill="#F59257" transform="translate(203,153)"/>
<path d="M0 0 C4.16464838 1.38821613 4.93784657 3.55708567 6.91015625 7.33984375 C9.47088967 13.59023608 9.85453307 19.57720286 7.5 25.9375 C4.79049783 31.84136263 1.55696142 37.56653137 -2 43 C-2.33 43 -2.66 43 -3 43 C-3.12686567 38.43283582 -3.12686567 38.43283582 -2.46875 36.1875 C-1.87459089 33.41475751 -2.13598782 31.0641137 -2.4375 28.25 C-2.53933594 27.26515625 -2.64117187 26.2803125 -2.74609375 25.265625 C-2.82988281 24.51796875 -2.91367188 23.7703125 -3 23 C-4.32 22.67 -5.64 22.34 -7 22 C-7.66 23.98 -8.32 25.96 -9 28 C-10.65 28.33 -12.3 28.66 -14 29 C-12.09256143 23.69010345 -9.20855777 18.99358544 -6.36523438 14.14648438 C-3.72114806 9.5490298 -1.74512187 5.01091263 0 0 Z " fill="#F9A752" transform="translate(182,143)"/>
<path d="M0 0 C1.90401138 1.90401138 2.93520439 3.33425686 3.19921875 6.046875 C3.1886578 8.03233273 3.09915043 10.0169914 3 12 C3.66 12.33 4.32 12.66 5 13 C4.67 14.65 4.34 16.3 4 18 C3.34 18 2.68 18 2 18 C2 19.65 2 21.3 2 23 C1.34 23 0.68 23 0 23 C0 26.96 0 30.92 0 35 C-3.92683468 34.72603479 -5.72768614 34.22390251 -8.8125 31.6875 C-12.15303852 27.58340981 -12.33571434 23.67929173 -12.29296875 18.515625 C-11.63326424 12.8509623 -9.13346137 7.70019206 -6 3 C-4.03247172 1.93753473 -2.03412421 0.92862192 0 0 Z " fill="#F06F53" transform="translate(161,190)"/>
<path d="M0 0 C1.32 0 2.64 0 4 0 C4 1.32 4 2.64 4 4 C4.99 4.33 5.98 4.66 7 5 C7 5.66 7 6.32 7 7 C7.66 7 8.32 7 9 7 C9.33 9.31 9.66 11.62 10 14 C10.66 14 11.32 14 12 14 C13.26348713 18.29585623 12.77740872 20.91195995 11 25 C10.01979625 26.0194119 9.02196992 27.02246356 8 28 C7.28552357 30.10332891 7.28552357 30.10332891 7 32 C4.7960517 30.89802585 3.59514781 29.87256482 2 28 C1.64830932 26.67139075 1.31229724 25.33841672 1 24 C0.34 23.67 -0.32 23.34 -1 23 C-1.625 19.9375 -1.625 19.9375 -2 17 C-2.66 17 -3.32 17 -4 17 C-4.50604984 10.01370081 -4.0333905 5.79799884 0 0 Z " fill="#F1654B" transform="translate(109,160)"/>
<path d="M0 0 C2.70578416 3.26187753 5.0152079 6.52409892 7.12890625 10.1953125 C7.96905273 11.63970703 7.96905273 11.63970703 8.82617188 13.11328125 C9.98807894 15.12864761 11.14953398 17.14427464 12.31054688 19.16015625 C12.86935547 20.12050781 13.42816406 21.08085937 14.00390625 22.0703125 C14.75909546 23.38153076 14.75909546 23.38153076 15.52954102 24.71923828 C16.86253863 26.78678995 18.18639692 28.35335499 20 30 C14.6235132 32.6882434 6.86292287 31.00532982 1.22265625 29.75 C-4.51376223 27.81433682 -7.80208993 21.84254954 -11 17 C-11 16.34 -11 15.68 -11 15 C-10.01 15.33 -9.02 15.66 -8 16 C-7.29788106 17.65204456 -6.63028587 19.31923769 -6 21 C-5.34 21.33 -4.68 21.66 -4 22 C-3.731875 21.401875 -3.46375 20.80375 -3.1875 20.1875 C-2.01506533 18.02775192 -0.80630718 16.64209744 1 15 C1.33 15.66 1.66 16.32 2 17 C2.05447047 15.58376784 2.09300508 14.16691809 2.125 12.75 C2.14820313 11.96109375 2.17140625 11.1721875 2.1953125 10.359375 C1.98073582 7.76728871 1.16541705 6.29412805 0 4 C0 2.68 0 1.36 0 0 Z " fill="#F69951" transform="translate(137,199)"/>
<path d="M0 0 C0.99 0.33 1.98 0.66 3 1 C3 4.63 3 8.26 3 12 C4.32 12 5.64 12 7 12 C6 17 5 22 4 27 C2.68 27.33 1.36 27.66 0 28 C0.33 29.32 0.66 30.64 1 32 C0.01 32 -0.98 32 -2 32 C-2 33.98 -2 35.96 -2 38 C-2.99 38 -3.98 38 -5 38 C-5 32.72 -5 27.44 -5 22 C-6.32 22.33 -7.64 22.66 -9 23 C-8.67 22.34 -8.34 21.68 -8 21 C-7.34 21 -6.68 21 -6 21 C-6.55269435 19.34191696 -7.10662252 17.68423783 -7.66577148 16.02832031 C-8.25265119 12.46674502 -5.86795481 9.68647527 -4.0625 6.75 C-3.67642578 6.1003125 -3.29035156 5.450625 -2.89257812 4.78125 C-1.93941582 3.18087871 -0.97114076 1.5895258 0 0 Z " fill="#F48454" transform="translate(157,151)"/>
<path d="M0 0 C1.57032423 3.82766532 0.929548 7.46770101 0 11.4375 C-0.66 12.7575 -1.32 14.0775 -2 15.4375 C-16.19 15.7675 -30.38 16.0975 -45 16.4375 C-36.8 0.0375 -36.8 0.0375 -29 -2.5625 C-25.76025506 -2.93434307 -22.50563669 -3.07458854 -19.25 -3.25 C-17.92742187 -3.33991211 -17.92742187 -3.33991211 -16.578125 -3.43164062 C-10.58896824 -3.75694453 -4.94605672 -3.86410681 0 0 Z M-33 1.4375 C-34.2375 2.5203125 -34.2375 2.5203125 -35.5 3.625 C-38.35556735 6.83751327 -38.95628999 9.32547585 -40 13.4375 C-35.19453321 13.51155295 -30.3893971 13.56605497 -25.58349609 13.60229492 C-23.94802059 13.61739911 -22.31258571 13.63788389 -20.67724609 13.66381836 C-18.32899976 13.70013145 -15.98128795 13.71720932 -13.6328125 13.73046875 C-12.53273361 13.75369453 -12.53273361 13.75369453 -11.41043091 13.77738953 C-9.1291908 13.81304636 -9.1291908 13.81304636 -6 13.4375 C-3.63307034 10.58923402 -3.63307034 10.58923402 -4.375 7.25 C-4.58125 6.321875 -4.7875 5.39375 -5 4.4375 C-5.66 4.4375 -6.32 4.4375 -7 4.4375 C-7.66 2.7875 -8.32 1.1375 -9 -0.5625 C-12.62493334 -0.62037784 -16.24974857 -0.6560542 -19.875 -0.6875 C-21.42380859 -0.71263672 -21.42380859 -0.71263672 -23.00390625 -0.73828125 C-23.99003906 -0.74472656 -24.97617188 -0.75117187 -25.9921875 -0.7578125 C-26.90339355 -0.76828613 -27.81459961 -0.77875977 -28.75341797 -0.78955078 C-31.20290436 -0.78120993 -31.20290436 -0.78120993 -33 1.4375 Z " fill="#F5AB59" transform="translate(169,115.5625)"/>
<path d="M0 0 C14.8682103 -1.06442869 14.8682103 -1.06442869 19.83984375 1.41796875 C23.9485216 5.0063671 26.67970156 8.45109876 27.37109375 13.953125 C27.50373603 20.53842389 27.21245825 25.14075037 23.38671875 30.609375 C22 32 22 32 19 33 C12.48063781 23.77448747 12.48063781 23.77448747 11 18 C12.875 18.125 12.875 18.125 15 19 C16.1875 22 16.1875 22 17 25 C17.33 25.33 17.66 25.66 18 26 C18.33 25.01 18.66 24.02 19 23 C18.67 22.67 18.34 22.34 18 22 C17.75 18.625 17.75 18.625 18 15 C18.98020375 13.9805881 19.97803008 12.97753644 21 12 C21.08024658 9.40110217 21.08024658 9.40110217 20 7 C18.03241727 5.63979849 18.03241727 5.63979849 16 5 C16 3.68 16 2.36 16 1 C11.71 1 7.42 1 3 1 C2.67 1.99 2.34 2.98 2 4 C1.34 2.68 0.68 1.36 0 0 Z " fill="#F7A75C" transform="translate(203,153)"/>
<path d="M0 0 C4.45005237 2.9712869 6.21234735 5.86592407 8.3125 10.75 C8.82425781 11.92046875 9.33601563 13.0909375 9.86328125 14.296875 C10.23839844 15.18890625 10.61351562 16.0809375 11 17 C10.11183594 16.84660156 9.22367188 16.69320312 8.30859375 16.53515625 C2.59344011 15.71870573 -3.17482093 15.63734276 -8.9375 15.4375 C-10.09830078 15.39431641 -11.25910156 15.35113281 -12.45507812 15.30664062 C-15.30328232 15.20115158 -18.15156529 15.09903445 -21 15 C-21 14.01 -21 13.02 -21 12 C-20.34 12.33 -19.68 12.66 -19 13 C-16.66831782 13.09715342 -14.33370043 13.12978217 -12 13.125 C-10.741875 13.12757813 -9.48375 13.13015625 -8.1875 13.1328125 C-5.10322182 13.22227358 -5.10322182 13.22227358 -3 12 C-3 8.7 -3 5.4 -3 2 C-8.20601694 -0.12439079 -12.72963382 -0.27208626 -18.25 -0.1875 C-19.47203125 -0.1865332 -19.47203125 -0.1865332 -20.71875 -0.18554688 C-24.99490388 -0.26347623 -24.99490388 -0.26347623 -29 1 C-29.33 0.01 -29.66 -0.98 -30 -2 C-21.47630058 -4.7741174 -7.90329573 -4.44975474 0 0 Z " fill="#F8AA6C" transform="translate(211,135)"/>
<path d="M0 0 C3.12587328 4.16783104 5.68035162 8.41883866 8.25 12.9375 C8.72179687 13.73607422 9.19359375 14.53464844 9.6796875 15.35742188 C10.12054688 16.13537109 10.56140625 16.91332031 11.015625 17.71484375 C11.42071289 18.41730225 11.82580078 19.11976074 12.24316406 19.84350586 C13 22 13 22 12 27 C6.39 27 0.78 27 -5 27 C-5 26.67 -5 26.34 -5 26 C-3.35 25.67 -1.7 25.34 0 25 C0 16.75 0 8.5 0 0 Z " fill="#F2985B" transform="translate(206,162)"/>
<path d="M0 0 C4.95 0 9.9 0 15 0 C15 4.29 15 8.58 15 13 C10.05 13 5.1 13 0 13 C0 8.71 0 4.42 0 0 Z " fill="#4E4E4E" transform="translate(617,140)"/>
<path d="M0 0 C1.38251953 -0.0309375 1.38251953 -0.0309375 2.79296875 -0.0625 C9.77744475 -0.10190466 16.96249003 0.38124059 22.25 5.375 C29 16.46428571 29 16.46428571 29 19.25 C18.77 18.92 8.54 18.59 -2 18.25 C-2 17.92 -2 17.59 -2 17.25 C8.395 16.755 8.395 16.755 19 16.25 C20.46303829 11.6345058 20.46303829 11.6345058 18.9609375 9.23046875 C15.73304516 5.36635067 15.73304516 5.36635067 11.125 3.8125 C10.073125 4.0290625 10.073125 4.0290625 9 4.25 C9 3.59 9 2.93 9 2.25 C3.39 2.25 -2.22 2.25 -8 2.25 C-7.67 4.23 -7.34 6.21 -7 8.25 C-8.89213369 5.86426621 -10.02391783 4.17824652 -11 1.25 C-8.68092078 -1.06907922 -3.10909439 0.01682866 0 0 Z " fill="#F1A960" transform="translate(181,112.75)"/>
<path d="M0 0 C1.19221916 0.00212242 1.19221916 0.00212242 2.40852356 0.00428772 C4.9455645 0.00988247 7.482517 0.02243397 10.01953125 0.03515625 C11.7402331 0.04017193 13.46093633 0.04473472 15.18164062 0.04882812 C19.39847155 0.05985018 23.61523641 0.07711119 27.83203125 0.09765625 C26.40772408 3.75704185 24.79941234 7.04364585 22.76953125 10.41015625 C22.24230469 11.29316406 21.71507812 12.17617187 21.171875 13.0859375 C20.72972656 13.74980469 20.28757813 14.41367188 19.83203125 15.09765625 C19.50203125 15.09765625 19.17203125 15.09765625 18.83203125 15.09765625 C18.83203125 12.78765625 18.83203125 10.47765625 18.83203125 8.09765625 C19.82203125 8.09765625 20.81203125 8.09765625 21.83203125 8.09765625 C21.83203125 6.77765625 21.83203125 5.45765625 21.83203125 4.09765625 C22.49203125 4.09765625 23.15203125 4.09765625 23.83203125 4.09765625 C23.83203125 3.43765625 23.83203125 2.77765625 23.83203125 2.09765625 C22.78015625 2.27167969 21.72828125 2.44570312 20.64453125 2.625 C14.70001166 3.36806495 8.79831947 2.95744553 2.83203125 2.66015625 C1.09759766 2.5818457 1.09759766 2.5818457 -0.671875 2.50195312 C-3.50424228 2.37320916 -6.3361711 2.23828944 -9.16796875 2.09765625 C-9.16796875 2.75765625 -9.16796875 3.41765625 -9.16796875 4.09765625 C-10.15796875 4.09765625 -11.14796875 4.09765625 -12.16796875 4.09765625 C-12.16796875 4.75765625 -12.16796875 5.41765625 -12.16796875 6.09765625 C-12.80734375 6.38640625 -13.44671875 6.67515625 -14.10546875 6.97265625 C-16.32002954 7.92589076 -16.32002954 7.92589076 -17.16796875 10.09765625 C-17.82796875 10.09765625 -18.48796875 10.09765625 -19.16796875 10.09765625 C-19.49796875 12.07765625 -19.82796875 14.05765625 -20.16796875 16.09765625 C-21.15796875 15.43765625 -22.14796875 14.77765625 -23.16796875 14.09765625 C-17.0576196 3.95707681 -12.18734853 -0.08148271 0 0 Z " fill="#E89774" transform="translate(137.16796875,132.90234375)"/>
<path d="M0 0 C4.42679007 1.47559669 4.91432696 3.90057368 7 8 C7 8.66 7 9.32 7 10 C6.01 10 5.02 10 4 10 C3.67 9.01 3.34 8.02 3 7 C2.67 7.99 2.34 8.98 2 10 C1.34 10 0.68 10 0 10 C-0.33 11.65 -0.66 13.3 -1 15 C-1.99 15.33 -2.98 15.66 -4 16 C-4.59070014 17.94603274 -4.59070014 17.94603274 -5 20 C-5.66 20.66 -6.32 21.32 -7 22 C-7.71408334 23.98356483 -8.38617742 25.98315437 -9 28 C-10.65 28.33 -12.3 28.66 -14 29 C-12.09256143 23.69010345 -9.20855777 18.99358544 -6.36523438 14.14648438 C-3.72114806 9.5490298 -1.74512187 5.01091263 0 0 Z " fill="#F3AA75" transform="translate(182,143)"/>
<path d="M0 0 C2 3 2 3 3 6 C2.67 6.66 2.34 7.32 2 8 C11.24 7.67 20.48 7.34 30 7 C30.66 5.68 31.32 4.36 32 3 C32.66 3 33.32 3 34 3 C34 2.34 34 1.68 34 1 C34.66 1 35.32 1 36 1 C36 3.64 36 6.28 36 9 C34.91581787 9.02505615 33.83163574 9.0501123 32.71459961 9.07592773 C28.66843091 9.17053929 24.62241253 9.27062586 20.57641602 9.37231445 C18.82970715 9.41546102 17.0829616 9.45714917 15.33618164 9.49731445 C12.81645684 9.55551169 10.29691329 9.61905997 7.77734375 9.68359375 C7.00414291 9.70030624 6.23094208 9.71701874 5.43431091 9.73423767 C0.87815027 9.85700021 -3.50034275 10.26786121 -8 11 C-7.67 9.68 -7.34 8.36 -7 7 C-6.01 7 -5.02 7 -4 7 C-3.34 5.35 -2.68 3.7 -2 2 C-1.34 2 -0.68 2 0 2 C0 1.34 0 0.68 0 0 Z " fill="#E97B69" transform="translate(120,141)"/>
<path d="M0 0 C0.99 0.33 1.98 0.66 3 1 C3 2.32 3 3.64 3 5 C3.9590625 5.433125 3.9590625 5.433125 4.9375 5.875 C7 7 7 7 8 9 C8.12375 8.195625 8.2475 7.39125 8.375 6.5625 C8.58125 5.716875 8.7875 4.87125 9 4 C9.66 3.67 10.32 3.34 11 3 C11.06058594 3.89203125 11.12117188 4.7840625 11.18359375 5.703125 C11.26738281 6.87359375 11.35117188 8.0440625 11.4375 9.25 C11.51871094 10.41015625 11.59992188 11.5703125 11.68359375 12.765625 C11.93247787 15.30977376 12.28114942 17.55953248 13 20 C13.99 20 14.98 20 16 20 C16.4640625 21.670625 16.4640625 21.670625 16.9375 23.375 C17.82326483 26.7945155 17.82326483 26.7945155 19 29 C18.34 29.66 17.68 30.32 17 31 C12.84221602 24.64031267 8.93302113 18.22384522 5.35546875 11.51953125 C4.15812729 9.29392536 2.90908439 7.11368513 1.625 4.9375 C0 2 0 2 0 0 Z " fill="#EF6F4A" transform="translate(108,183)"/>
<path d="M0 0 C1.69141656 0.08963062 3.37959602 0.24577676 5.0625 0.4375 C6.44115234 0.59025391 6.44115234 0.59025391 7.84765625 0.74609375 C8.55792969 0.82988281 9.26820313 0.91367188 10 1 C9.40210642 5.18525505 8.63735965 9.08852973 7 13 C6.01 13.33 5.02 13.66 4 14 C0.89825225 11.93216817 0.18767855 11.38031589 -1 8 C-1.1875 4.3125 -1.1875 4.3125 -1 1 C-0.67 0.67 -0.34 0.34 0 0 Z " fill="#EA755B" transform="translate(119,154)"/>
<path d="M0 0 C0.66 0 1.32 0 2 0 C2.81837442 1.41328129 3.62946219 2.83078346 4.4375 4.25 C4.88996094 5.03890625 5.34242188 5.8278125 5.80859375 6.640625 C8.40707854 11.78647686 8.92277219 16.99413811 7.2109375 22.5703125 C4.36014582 30.0345991 4.36014582 30.0345991 1 33 C0.79913557 29.28400809 0.8480563 28.22791555 3 25 C3.66 25 4.32 25 5 25 C4.34 22.69 3.68 20.38 3 18 C2.34 18.33 1.68 18.66 1 19 C1.33 13.72 1.66 8.44 2 3 C1.34 3 0.68 3 0 3 C0 3.66 0 4.32 0 5 C-0.66 5 -1.32 5 -2 5 C-1.34 3.35 -0.68 1.7 0 0 Z " fill="#F5C88D" transform="translate(172,125)"/>
<path d="M0 0 C4.45005237 2.9712869 6.21234735 5.86592407 8.3125 10.75 C8.82425781 11.92046875 9.33601563 13.0909375 9.86328125 14.296875 C10.23839844 15.18890625 10.61351562 16.0809375 11 17 C8.69 16.67 6.38 16.34 4 16 C4.99 15.67 5.98 15.34 7 15 C5.47444034 10.18877153 5.47444034 10.18877153 2 7 C1.87496094 6.35546875 1.74992187 5.7109375 1.62109375 5.046875 C1.20648904 2.87883454 1.20648904 2.87883454 -0.65234375 1.953125 C-8.13722621 -0.34991576 -21.70920779 -2.6453961 -29 1 C-29.33 0.01 -29.66 -0.98 -30 -2 C-21.47630058 -4.7741174 -7.90329573 -4.44975474 0 0 Z " fill="#EDBC9A" transform="translate(211,135)"/>
<path d="M0 0 C0.99 0 1.98 0 3 0 C3.33 1.65 3.66 3.3 4 5 C4.66 5 5.32 5 6 5 C5.88512252 6.58409994 5.75765492 8.16728963 5.625 9.75 C5.55539063 10.63171875 5.48578125 11.5134375 5.4140625 12.421875 C4.99687406 15.01946339 4.25822696 16.71406094 3 19 C2.67 19.99 2.34 20.98 2 22 C2.66 22 3.32 22 4 22 C3.67 22.66 3.34 23.32 3 24 C2.01 23.34 1.02 22.68 0 22 C-0.1875 19.375 -0.1875 19.375 0 17 C-0.66 17 -1.32 17 -2 17 C-2.042721 15.33388095 -2.04063832 13.66617115 -2 12 C-1.67 11.67 -1.34 11.34 -1 11 C-0.76636119 9.15108054 -0.58696365 7.29511969 -0.4375 5.4375 C-0.35371094 4.42558594 -0.26992187 3.41367188 -0.18359375 2.37109375 C-0.12300781 1.58863281 -0.06242188 0.80617187 0 0 Z " fill="#F0684C" transform="translate(195,155)"/>
<path d="M0 0 C0 3.46372446 -0.74982498 4.70090979 -2.4375 7.6875 C-2.97503906 8.65558594 -3.51257813 9.62367188 -4.06640625 10.62109375 C-5.4896971 13.10825857 -6.93441694 15.57468106 -8.40234375 18.03515625 C-8.81105713 18.73229736 -9.21977051 19.42943848 -9.64086914 20.14770508 C-10.44866276 21.52375075 -11.26905192 22.89249809 -12.10327148 24.25268555 C-14.67863902 28.66310596 -15.524279 31.76360369 -15 37 C-14.1025173 39.83378132 -14.1025173 39.83378132 -13 42 C-18.53846154 41.38461538 -18.53846154 41.38461538 -20.875 39.4375 C-21.24625 38.963125 -21.6175 38.48875 -22 38 C-20.35 38.33 -18.7 38.66 -17 39 C-17 35.04 -17 31.08 -17 27 C-16.34 27 -15.68 27 -15 27 C-15 25.35 -15 23.7 -15 22 C-14.34 22 -13.68 22 -13 22 C-11.99193408 19.17318015 -11.99193408 19.17318015 -11.5625 16.875 C-11.376875 16.25625 -11.19125 15.6375 -11 15 C-10.34 14.67 -9.68 14.34 -9 14 C-8.34786708 11.97536745 -8.34786708 11.97536745 -8 10 C-7.01 10 -6.02 10 -5 10 C-5 8.68 -5 7.36 -5 6 C-4.34 6 -3.68 6 -3 6 C-2.87625 5.195625 -2.7525 4.39125 -2.625 3.5625 C-2.315625 2.2940625 -2.315625 2.2940625 -2 1 C-1.34 0.67 -0.68 0.34 0 0 Z " fill="#EC9A7A" transform="translate(178,186)"/>
<path d="M0 0 C0.33 1.32 0.66 2.64 1 4 C0.34 4 -0.32 4 -1 4 C-1.10957031 4.54527344 -1.21914062 5.09054688 -1.33203125 5.65234375 C-2.19226438 9.74369645 -3.18152096 13.63568973 -4.625 17.5625 C-6.85596475 24.04131178 -6.36651888 30.30405747 -5 37 C-4.34 37.33 -3.68 37.66 -3 38 C-3.99 38 -4.98 38 -6 38 C-8.91701604 31.76227374 -11.49978964 25.9393252 -10 19 C-8.30308426 14.81792379 -6.22676737 10.92128303 -4 7 C-3.57460937 6.23429688 -3.14921875 5.46859375 -2.7109375 4.6796875 C-1.8268248 3.10863832 -0.91710376 1.55202175 0 0 Z " fill="#E88375" transform="translate(148,167)"/>
<path d="M0 0 C0.66 0 1.32 0 2 0 C-1.65428333 9.54173982 -7.26240723 18.23619623 -12.484375 26.98535156 C-14.82324013 30.92073043 -17.01040878 34.87176024 -19 39 C-19.33 37.68 -19.66 36.36 -20 35 C-19.34 35 -18.68 35 -18 35 C-18 33.68 -18 32.36 -18 31 C-17.34 31 -16.68 31 -16 31 C-16 29.02 -16 27.04 -16 25 C-15.01 25 -14.02 25 -13 25 C-13.33 23.68 -13.66 22.36 -14 21 C-12.68 20.67 -11.36 20.34 -10 20 C-9.67 16.7 -9.34 13.4 -9 10 C-8.34 10 -7.68 10 -7 10 C-6.505 9.34 -6.01 8.68 -5.5 8 C-5.005 7.34 -4.51 6.68 -4 6 C-3.34 6 -2.68 6 -2 6 C-2 5.01 -2 4.02 -2 3 C-1.34 3 -0.68 3 0 3 C0 2.01 0 1.02 0 0 Z " fill="#EFA280" transform="translate(171,158)"/>
<path d="M0 0 C3.34886838 1.69933284 4.64156977 4.80875318 6.3515625 8.00390625 C6.71507813 8.65037109 7.07859375 9.29683594 7.453125 9.96289062 C10.1015625 14.75696076 10.1015625 14.75696076 10.1015625 17.06640625 C9.1115625 17.06640625 8.1215625 17.06640625 7.1015625 17.06640625 C6.7715625 14.75640625 6.4415625 12.44640625 6.1015625 10.06640625 C5.4415625 10.06640625 4.7815625 10.06640625 4.1015625 10.06640625 C2.4765625 8.81640625 2.4765625 8.81640625 1.1015625 7.06640625 C1.1015625 5.74640625 1.1015625 4.42640625 1.1015625 3.06640625 C-0.82153172 3.10596523 -0.82153172 3.10596523 -2.8984375 4.06640625 C-6.32896699 9.02161552 -6.56367612 14.22539735 -6.8984375 20.06640625 C-6.2384375 20.06640625 -5.5784375 20.06640625 -4.8984375 20.06640625 C-4.2384375 21.38640625 -3.5784375 22.70640625 -2.8984375 24.06640625 C-3.5584375 24.72640625 -4.2184375 25.38640625 -4.8984375 26.06640625 C-8.21769115 20.49480191 -9.53800958 16.56872236 -8.8984375 10.06640625 C-7.80848905 5.80569866 -4.92558534 0.17229414 0 0 Z " fill="#E68A7A" transform="translate(111.8984375,156.93359375)"/>
<path d="M0 0 C1.38251953 -0.0309375 1.38251953 -0.0309375 2.79296875 -0.0625 C9.97293123 -0.10300755 17.09317845 0.41771233 22.4375 5.625 C23.92247935 8.1197653 25.05920517 10.50601507 26 13.25 C23.5625 12 23.5625 12 21 10.25 C20.33984375 8.140625 20.33984375 8.140625 20 6.25 C18.741875 5.92 17.48375 5.59 16.1875 5.25 C15.47980469 5.064375 14.77210938 4.87875 14.04296875 4.6875 C11.85929991 4.1452993 11.85929991 4.1452993 9 4.25 C9 3.59 9 2.93 9 2.25 C3.39 2.25 -2.22 2.25 -8 2.25 C-7.67 4.23 -7.34 6.21 -7 8.25 C-8.89213369 5.86426621 -10.02391783 4.17824652 -11 1.25 C-8.68092078 -1.06907922 -3.10909439 0.01682866 0 0 Z " fill="#EDA891" transform="translate(181,112.75)"/>
<path d="M0 0 C14.8682103 -1.06442869 14.8682103 -1.06442869 19.83984375 1.41796875 C23.97639595 5.03071173 26.71883917 8.46955252 27.3359375 14.0234375 C27.46522333 25.11616198 27.46522333 25.11616198 23 30 C21.74458443 26.23375329 22.62938042 24.62811066 24 21 C24.66 21 25.32 21 26 21 C25.67 18.36 25.34 15.72 25 13 C24.34 13 23.68 13 23 13 C23 11.02 23 9.04 23 7 C20.03 6.505 20.03 6.505 17 6 C16.67 4.35 16.34 2.7 16 1 C11.71 1 7.42 1 3 1 C2.67 1.99 2.34 2.98 2 4 C1.34 2.68 0.68 1.36 0 0 Z " fill="#EBAE83" transform="translate(203,153)"/>
<path d="M0 0 C-3.43994743 7.08150351 -6.52671612 12.39400955 -13 17 C-13.66 17 -14.32 17 -15 17 C-15 16.01 -15 15.02 -15 14 C-13.35178756 12.96986723 -11.68496298 11.96885372 -10 11 C-10 10.34 -10 9.68 -10 9 C-9.01 9 -8.02 9 -7 9 C-7 8.34 -7 7.68 -7 7 C-6.34 7 -5.68 7 -5 7 C-4.67 5.35 -4.34 3.7 -4 2 C-23.305 1.505 -23.305 1.505 -43 1 C-43 0.67 -43 0.34 -43 0 C-37.35849247 -0.16759211 -31.71684548 -0.32815426 -26.07495117 -0.48217773 C-24.15529992 -0.53557803 -22.23570129 -0.59090586 -20.31616211 -0.64819336 C-17.55854641 -0.73015919 -14.80081636 -0.80521256 -12.04296875 -0.87890625 C-11.18350143 -0.90594131 -10.32403412 -0.93297638 -9.43852234 -0.96083069 C-8.63791885 -0.98092697 -7.83731537 -1.00102325 -7.01245117 -1.02172852 C-5.95655037 -1.05170677 -5.95655037 -1.05170677 -4.87931824 -1.08229065 C-3 -1 -3 -1 0 0 Z " fill="#F9D6B7" transform="translate(210,211)"/>
<path d="M0 0 C0.99 0 1.98 0 3 0 C2.67 2.31 2.34 4.62 2 7 C3.32 7.33 4.64 7.66 6 8 C6.33 9.32 6.66 10.64 7 12 C6.34 12 5.68 12 5 12 C4.67 13.65 4.34 15.3 4 17 C3.34 17 2.68 17 2 17 C2 18.65 2 20.3 2 22 C1.01 21.34 0.02 20.68 -1 20 C-1 19.34 -1 18.68 -1 18 C-1.15691536 16.2907434 -1.32487315 14.58248679 -1.5 12.875 C-1.5928125 11.96492187 -1.685625 11.05484375 -1.78125 10.1171875 C-1.8534375 9.41851562 -1.925625 8.71984375 -2 8 C-1.34 8 -0.68 8 0 8 C-0.2784375 6.8553125 -0.2784375 6.8553125 -0.5625 5.6875 C-1 3 -1 3 0 0 Z " fill="#F47E4E" transform="translate(165,184)"/>
<path d="M0 0 C3.3 0 6.6 0 10 0 C13.22265625 5.2734375 13.22265625 5.2734375 14 7 C13.67 7.66 13.34 8.32 13 9 C12.34 8.67 11.68 8.34 11 8 C11 7.34 11 6.68 11 6 C9.35 6.66 7.7 7.32 6 8 C6 6.02 6 4.04 6 2 C5.01 2 4.02 2 3 2 C3.02320313 2.72445312 3.04640625 3.44890625 3.0703125 4.1953125 C3.17018794 9.54578244 3.16455748 13.99446082 1 19 C1.66 19 2.32 19 3 19 C3 20.65 3 22.3 3 24 C1.10786631 21.61426621 -0.02391783 19.92824652 -1 17 C-0.7314695 15.21818823 -0.38934802 13.44686634 0 11.6875 C0.837942 7.4754449 1.14010178 4.21837657 0 0 Z " fill="#E3968A" transform="translate(192,153)"/>
<path d="M0 0 C3.43535103 3.92611547 6.25819472 8.06322617 8 13 C7.75 16 7.75 16 7 18 C5.35 18 3.7 18 2 18 C1.46845258 16.39935157 0.95011647 14.79431126 0.4375 13.1875 C0.14746094 12.29417969 -0.14257812 11.40085938 -0.44140625 10.48046875 C-1 8 -1 8 0 5 C0.03874921 3.33378384 0.0450286 1.66605828 0 0 Z " fill="#F6AF6B" transform="translate(211,171)"/>
<path d="M0 0 C0 3 0 3 -2 6 C-2.66 6 -3.32 6 -4 6 C-4 6.66 -4 7.32 -4 8 C-9.85966945 11.3467282 -13.95540847 12.57602592 -20.65625 12.390625 C-21.83785706 12.38213531 -21.83785706 12.38213531 -23.04333496 12.37347412 C-25.52954034 12.35129902 -28.01423928 12.30114337 -30.5 12.25 C-32.19789567 12.22991039 -33.89581421 12.21166396 -35.59375 12.1953125 C-39.72973639 12.1514969 -43.8646139 12.08260605 -48 12 C-47.67 11.01 -47.34 10.02 -47 9 C-46.67 9.66 -46.34 10.32 -46 11 C-41.65780121 10.93103387 -37.31652726 10.84302621 -32.97509766 10.73754883 C-31.49896862 10.70434645 -30.02271406 10.67629983 -28.54638672 10.65356445 C-26.42100668 10.61993049 -24.29677196 10.56761481 -22.171875 10.51171875 C-20.8940918 10.48553467 -19.61630859 10.45935059 -18.29980469 10.43237305 C-14.81022792 9.97513419 -13.60343108 9.23504189 -11 7 C-8.25 6.8125 -8.25 6.8125 -6 7 C-6 6.34 -6 5.68 -6 5 C-5.01 5 -4.02 5 -3 5 C-3 4.01 -3 3.02 -3 2 C-2.01 1.34 -1.02 0.68 0 0 Z " fill="#F7C8A6" transform="translate(217,197)"/>
<path d="M0 0 C1 2 1 2 0.44140625 4.1640625 C0.15136719 4.97617188 -0.13867188 5.78828125 -0.4375 6.625 C-0.72496094 7.44226563 -1.01242188 8.25953125 -1.30859375 9.1015625 C-1.53675781 9.72804687 -1.76492187 10.35453125 -2 11 C-1.34 11.33 -0.68 11.66 0 12 C-0.66 12 -1.32 12 -2 12 C-2 14.64 -2 17.28 -2 20 C-2.8353125 19.690625 -2.8353125 19.690625 -3.6875 19.375 C-6.659538 18.89304789 -8.31979941 19.73434972 -11 21 C-9.60966128 17.32790921 -7.95933171 13.93649918 -6.0625 10.5 C-5.55847656 9.5821875 -5.05445313 8.664375 -4.53515625 7.71875 C-3.06655179 5.11786271 -1.54956937 2.55332028 0 0 Z " fill="#F1754C" transform="translate(167,172)"/>
<path d="M0 0 C-0.99 1.98 -1.98 3.96 -3 6 C-3.495 4.02 -3.495 4.02 -4 2 C-16.87 2 -29.74 2 -43 2 C-43 2.66 -43 3.32 -43 4 C-43.66 3.67 -44.32 3.34 -45 3 C-44.67 2.34 -44.34 1.68 -44 1 C-38.21626224 0.689553 -32.43219977 0.38658546 -26.64770508 0.09057617 C-24.67949838 -0.01120243 -22.71139666 -0.11503264 -20.7434082 -0.22094727 C-17.9164288 -0.37273618 -15.08915531 -0.5171694 -12.26171875 -0.66015625 C-10.93970711 -0.73351952 -10.93970711 -0.73351952 -9.59098816 -0.80836487 C-8.77036392 -0.8484819 -7.94973969 -0.88859894 -7.10424805 -0.92993164 C-6.38254929 -0.96768204 -5.66085052 -1.00543243 -4.9172821 -1.04432678 C-3 -1 -3 -1 0 0 Z " fill="#EBA079" transform="translate(222,191)"/>
<path d="M0 0 C3.875 1.75 3.875 1.75 5 4 C4.94921875 6.0234375 4.94921875 6.0234375 4.6875 8.375 C4.60886719 9.14585938 4.53023437 9.91671875 4.44921875 10.7109375 C4 13 4 13 2 17 C-11.2 17 -24.4 17 -38 17 C-38 16.67 -38 16.34 -38 16 C-25.13 16 -12.26 16 1 16 C1.69489656 7.71792319 1.69489656 7.71792319 0 0 Z " fill="#FCD7C0" transform="translate(165,114)"/>
<path d="M0 0 C0.99 0 1.98 0 3 0 C3.33 1.32 3.66 2.64 4 4 C3.01 4.66 2.02 5.32 1 6 C0.34 7.65 -0.32 9.3 -1 11 C12.365 11.495 12.365 11.495 26 12 C26 12.33 26 12.66 26 13 C15.77 13 5.54 13 -5 13 C-4.0111713 7.06702777 -3.01123597 4.85683221 0 0 Z " fill="#E57C66" transform="translate(176,195)"/>
<path d="M0 0 C11.88 0 23.76 0 36 0 C34.4879538 3.78011551 33.01337003 6.86971802 30.9375 10.3125 C30.41027344 11.19550781 29.88304687 12.07851562 29.33984375 12.98828125 C28.89769531 13.65214844 28.45554688 14.31601563 28 15 C27.67 15 27.34 15 27 15 C27 12.69 27 10.38 27 8 C27.99 8 28.98 8 30 8 C30 6.68 30 5.36 30 4 C30.66 4 31.32 4 32 4 C32 3.34 32 2.68 32 2 C21.44 1.67 10.88 1.34 0 1 C0 0.67 0 0.34 0 0 Z " fill="#F7CEA2" transform="translate(129,133)"/>
<path d="M0 0 C8.57142857 -0.28571429 8.57142857 -0.28571429 12 2 C11.6875 5.375 11.6875 5.375 11 9 C10.01 9.66 9.02 10.32 8 11 C8 9.68 8 8.36 8 7 C6.824375 7.0928125 6.824375 7.0928125 5.625 7.1875 C4.75875 7.125625 3.8925 7.06375 3 7 C1.25372522 4.38058783 0.61277612 2.96175123 0 0 Z " fill="#F67B4D" transform="translate(206,154)"/>
<path d="M0 0 C1.32 0.33 2.64 0.66 4 1 C4 2.32 4 3.64 4 5 C4.33 4.34 4.66 3.68 5 3 C5.99 3 6.98 3 8 3 C8 3.99 8 4.98 8 6 C8.66 6 9.32 6 10 6 C10 6.99 10 7.98 10 9 C10.66 9 11.32 9 12 9 C11.67 11.64 11.34 14.28 11 17 C10.34 17 9.68 17 9 17 C7.68417937 14.73103368 6.37224764 12.45996813 5.0625 10.1875 C4.68931641 9.54490234 4.31613281 8.90230469 3.93164062 8.24023438 C2.36533365 5.51683576 0.99630626 2.98891878 0 0 Z " fill="#EFA165" transform="translate(125,173)"/>
<path d="M0 0 C0.99 0.33 1.98 0.66 3 1 C1.625 2.5 1.625 2.5 0 4 C-0.66 4 -1.32 4 -2 4 C-2.99 6.97 -3.98 9.94 -5 13 C2.59 13 10.18 13 18 13 C18 13.33 18 13.66 18 14 C13.89587259 14.16764279 9.79169203 14.3339474 5.6875 14.5 C3.93663086 14.57154297 3.93663086 14.57154297 2.15039062 14.64453125 C1.03212891 14.68964844 -0.08613281 14.73476562 -1.23828125 14.78125 C-2.7857605 14.8440918 -2.7857605 14.8440918 -4.36450195 14.90820312 C-6.24211189 14.97360204 -8.12125145 15 -10 15 C-9.09238938 13.24528614 -8.17349289 11.49640736 -7.25 9.75 C-6.73953125 8.77546875 -6.2290625 7.8009375 -5.703125 6.796875 C-4.05180119 4.08506801 -2.33508701 2.13203597 0 0 Z " fill="#E48976" transform="translate(134,116)"/>
<path d="M0 0 C2.04526651 2.46842509 3.92092553 4.8671549 5.5625 7.625 C6.86842624 9.78261727 8.14123248 11.31825796 10 13 C4.12805617 15.93597192 -5.01458706 13.92388273 -11 12 C-11.33 11.34 -11.66 10.68 -12 10 C-6.72 10.66 -1.44 11.32 4 12 C2.35143175 7.87596527 2.35143175 7.87596527 -1 6 C-0.34 6 0.32 6 1 6 C0.67 4.02 0.34 2.04 0 0 Z " fill="#EEBE8B" transform="translate(147,216)"/>
<path d="M0 0 C3.29164829 -0.02895225 6.58326399 -0.0467823 9.875 -0.0625 C10.81214844 -0.07087891 11.74929687 -0.07925781 12.71484375 -0.08789062 C14.05869141 -0.09272461 14.05869141 -0.09272461 15.4296875 -0.09765625 C16.67081299 -0.10551147 16.67081299 -0.10551147 17.93701172 -0.11352539 C20 0 20 0 22 1 C21.67 2.65 21.34 4.3 21 6 C20.34 6 19.68 6 19 6 C19 6.66 19 7.32 19 8 C17.68 7.67 16.36 7.34 15 7 C14.67 5.35 14.34 3.7 14 2 C7.07 1.505 7.07 1.505 0 1 C0 0.67 0 0.34 0 0 Z " fill="#EFA25C" transform="translate(184,212)"/>
<path d="M0 0 C2.63207866 2.3814045 4.53137455 4.7535648 6 8 C5.03114516 12.19837098 2.44256838 15.49898532 0 19 C-0.93065133 16.39417629 -1.14917407 15.35801776 -0.0625 12.75 C0.288125 12.1725 0.63875 11.595 1 11 C0.01 11 -0.98 11 -2 11 C-1.67 10.484375 -1.34 9.96875 -1 9.4375 C0.32010877 6.21973488 0.13242105 3.4429472 0 0 Z " fill="#F4BA7A" transform="translate(138,162)"/>
<path d="M0 0 C15.38955385 -1.06895468 15.38955385 -1.06895468 19.2421875 1.48828125 C20.91560552 3.8795857 22 6.0373052 22 9 C19 8 19 8 17.5625 5.5 C13.47119269 1.50848067 8.51119094 2.09531934 3 2 C2.67 3.65 2.34 5.3 2 7 C1.34 6.67 0.68 6.34 0 6 C0 4.02 0 2.04 0 0 Z " fill="#DE9382" transform="translate(116,153)"/>
<path d="M0 0 C2.125 0.375 2.125 0.375 4 1 C3.49396008 3.16874252 3.00016187 4.99967627 2 7 C0.35 7 -1.3 7 -3 7 C-4.32 9.31 -5.64 11.62 -7 14 C-7.66 14 -8.32 14 -9 14 C-6.68838527 5.64666495 -6.68838527 5.64666495 -3.9375 3.0625 C-3.298125 2.711875 -2.65875 2.36125 -2 2 C-1.34 1.34 -0.68 0.68 0 0 Z " fill="#F06D4B" transform="translate(138,115)"/>
<path d="M0 0 C0 0.66 0 1.32 0 2 C-9.57 2.33 -19.14 2.66 -29 3 C-28 1 -28 1 -25 0 C-21.71787468 -0.34617061 -18.42096641 -0.46559337 -15.125 -0.625 C-14.22652344 -0.6765625 -13.32804688 -0.728125 -12.40234375 -0.78125 C-8.10529103 -0.99705472 -4.19165012 -1.1750651 0 0 Z " fill="#E9A97D" transform="translate(165,113)"/>
<path d="M0 0 C0.66 0 1.32 0 2 0 C4.22697147 3.34045721 4.55724635 5.43677228 5.125 9.375 C5.29257813 10.49648437 5.46015625 11.61796875 5.6328125 12.7734375 C5.94965288 15.55758804 6.07332983 18.20299084 6 21 C4 20 4 20 3 18 C2.34 18.33 1.68 18.66 1 19 C1.33 13.72 1.66 8.44 2 3 C1.34 3 0.68 3 0 3 C0 3.66 0 4.32 0 5 C-0.66 5 -1.32 5 -2 5 C-1.34 3.35 -0.68 1.7 0 0 Z " fill="#F6B970" transform="translate(172,125)"/>
<path d="M0 0 C3.92491136 4.52874388 7.37459686 9.60598991 10 15 C9.67 15.66 9.34 16.32 9 17 C8.21625 16.814375 7.4325 16.62875 6.625 16.4375 C4.02910225 15.74037734 4.02910225 15.74037734 2 17 C2.185625 15.865625 2.37125 14.73125 2.5625 13.5625 C2.706875 12.386875 2.85125 11.21125 3 10 C2.67 9.67 2.34 9.34 2 9 C1.95936168 7.33382885 1.957279 5.66611905 2 4 C1.34 4 0.68 4 0 4 C0 2.68 0 1.36 0 0 Z " fill="#F2AB86" transform="translate(127,182)"/>
<path d="M0 0 C3.82524236 1.450954 5.19090966 3.38181932 7 7 C7 7.66 7 8.32 7 9 C7.99 9 8.98 9 10 9 C10.309375 10.11375 10.61875 11.2275 10.9375 12.375 C11.82326483 15.7945155 11.82326483 15.7945155 13 18 C12.34 18.66 11.68 19.32 11 20 C0 2.91292135 0 2.91292135 0 0 Z " fill="#EA9777" transform="translate(114,194)"/>
<path d="M0 0 C2.97 0.495 2.97 0.495 6 1 C4.72278474 5.99275057 2.82669043 8.57611908 -1 12 C-1.66 11.01 -2.32 10.02 -3 9 C-2.67 8.01 -2.34 7.02 -2 6 C-1.34 6 -0.68 6 0 6 C0 4.02 0 2.04 0 0 Z " fill="#555555" transform="translate(713,188)"/>
<path d="M0 0 C0.66 0 1.32 0 2 0 C2 2.64 2 5.28 2 8 C-5.59 8 -13.18 8 -21 8 C-21 7.67 -21 7.34 -21 7 C-12.585 6.505 -12.585 6.505 -4 6 C-3.34 4.68 -2.68 3.36 -2 2 C-1.34 2 -0.68 2 0 2 C0 1.34 0 0.68 0 0 Z " fill="#F3A869" transform="translate(154,142)"/>
<path d="M0 0 C0.33 0 0.66 0 1 0 C2.38653334 7.92735368 2.06901589 13.91885547 -2 21 C-3.640625 22.78125 -3.640625 22.78125 -5 24 C-4.67 21.36 -4.34 18.72 -4 16 C-3.34 16 -2.68 16 -2 16 C-0.89485234 12.68455701 -0.67892369 9.79589889 -0.4375 6.3125 C-0.35371094 5.13300781 -0.26992187 3.95351562 -0.18359375 2.73828125 C-0.12300781 1.83464844 -0.06242188 0.93101562 0 0 Z " fill="#F5D49E" transform="translate(189,153)"/>
<path d="M0 0 C1.32 0.33 2.64 0.66 4 1 C3.32829194 4.8063457 2.27253436 8.35206816 1 12 C0.01 11.67 -0.98 11.34 -2 11 C-1.979375 10.236875 -1.95875 9.47375 -1.9375 8.6875 C-1.87057159 5.89814214 -1.87057159 5.89814214 -3 3 C-1.68 2.67 -0.36 2.34 1 2 C0.67 1.34 0.34 0.68 0 0 Z " fill="#F5754B" transform="translate(125,155)"/>
<path d="M0 0 C4.42679007 1.47559669 4.91432696 3.90057368 7 8 C7 8.66 7 9.32 7 10 C6.01 10 5.02 10 4 10 C3.67 9.01 3.34 8.02 3 7 C2.01 8.485 2.01 8.485 1 10 C1 9.34 1 8.68 1 8 C0.01 8 -0.98 8 -2 8 C-1.33333333 5.33333333 -0.66666667 2.66666667 0 0 Z " fill="#F4C287" transform="translate(182,143)"/>
<path d="M0 0 C0 0.66 0 1.32 0 2 C-0.99 2.495 -0.99 2.495 -2 3 C-4.29174077 6.43761116 -4.29524047 7.92071615 -4.4140625 11.98046875 C-4.45273437 13.14384766 -4.49140625 14.30722656 -4.53125 15.50585938 C-4.5621875 16.72080078 -4.593125 17.93574219 -4.625 19.1875 C-4.66367187 20.41404297 -4.70234375 21.64058594 -4.7421875 22.90429688 C-4.83656103 25.93604656 -4.92214549 28.96778841 -5 32 C-5.33 32 -5.66 32 -6 32 C-6.3127796 27.41851502 -6.5679649 22.83559391 -6.8125 18.25 C-6.94688477 16.29707031 -6.94688477 16.29707031 -7.08398438 14.3046875 C-7.14521484 13.05429688 -7.20644531 11.80390625 -7.26953125 10.515625 C-7.33760986 9.36352539 -7.40568848 8.21142578 -7.47583008 7.02441406 C-7 4 -7 4 -4.6081543 1.59277344 C-2 0 -2 0 0 0 Z " fill="#474747" transform="translate(584,170)"/>
<path d="M0 0 C0.99 0 1.98 0 3 0 C2.34 4.62 1.68 9.24 1 14 C1.66 14 2.32 14 3 14 C3.66 15.32 4.32 16.64 5 18 C4.34 18.66 3.68 19.32 3 20 C-0.80968083 13.60517861 -1.98890474 8.94452369 -0.5 1.5 C-0.335 1.005 -0.17 0.51 0 0 Z " fill="#E4837B" transform="translate(104,163)"/>
<path d="M0 0 C0.66 0 1.32 0 2 0 C2.33 1.32 2.66 2.64 3 4 C11.25 4.33 19.5 4.66 28 5 C28 5.33 28 5.66 28 6 C23.91680116 6.0871142 19.83384136 6.14043048 15.75 6.1875 C14.59113281 6.21263672 13.43226563 6.23777344 12.23828125 6.26367188 C11.12324219 6.27333984 10.00820312 6.28300781 8.859375 6.29296875 C7.31975098 6.31653442 7.31975098 6.31653442 5.74902344 6.34057617 C2.63780439 5.95512763 1.2937883 5.08024524 -1 3 C-0.67 2.01 -0.34 1.02 0 0 Z " fill="#DF907B" transform="translate(166,223)"/>
<path d="M0 0 C2.41316065 3.21754753 3.8515438 5.26751735 5 9 C4 12 4 12 0 16 C0 10.72 0 5.44 0 0 Z " fill="#F3A06E" transform="translate(206,162)"/>
<path d="M0 0 C0.66 0.99 1.32 1.98 2 3 C1.34 3 0.68 3 0 3 C0 4.65 0 6.3 0 8 C-0.99 8.33 -1.98 8.66 -3 9 C-3.0825 9.78375 -3.165 10.5675 -3.25 11.375 C-4 14 -4 14 -6.0625 15.3125 C-7.0215625 15.6528125 -7.0215625 15.6528125 -8 16 C-6.57250019 12.20950293 -4.83763458 8.72877544 -2.875 5.1875 C-2.33617187 4.21167969 -1.79734375 3.23585937 -1.2421875 2.23046875 C-0.83226562 1.49441406 -0.42234375 0.75835937 0 0 Z " fill="#F0AF81" transform="translate(166,135)"/>
<path d="M0 0 C3 3.75 3 3.75 3 6 C-7.23 5.67 -17.46 5.34 -28 5 C-28 4.67 -28 4.34 -28 4 C-18.76 4 -9.52 4 0 4 C0 2.68 0 1.36 0 0 Z " fill="#F9D8BB" transform="translate(207,126)"/>
<path d="M0 0 C2.82338429 3.1916518 3.62384955 5.76830741 4 10 C3 11 3 11 0.4375 11.0625 C-0.366875 11.041875 -1.17125 11.02125 -2 11 C-2 9.35 -2 7.7 -2 6 C-1.34 6 -0.68 6 0 6 C0 4.02 0 2.04 0 0 Z " fill="#F6C285" transform="translate(215,178)"/>
<path d="M0 0 C0.66 0 1.32 0 2 0 C3.4731994 2.74997221 4.22404875 4.89619499 5 8 C1.7 8 -1.6 8 -5 8 C-3.68 7.01 -2.36 6.02 -1 5 C-1.33 4.34 -1.66 3.68 -2 3 C-1.34 2.01 -0.68 1.02 0 0 Z " fill="#F6A650" transform="translate(146,220)"/>
<path d="M0 0 C2.32472205 2.85306797 3.7508258 5.54074837 5 9 C4.01 8.67 3.02 8.34 2 8 C2 7.34 2 6.68 2 6 C0.35 6.66 -1.3 7.32 -3 8 C-3 5.69 -3 3.38 -3 1 C-2.01 0.67 -1.02 0.34 0 0 Z " fill="#F08F72" transform="translate(201,153)"/>
<path d="M0 0 C2.64 0.66 5.28 1.32 8 2 C7.34 4.97 6.68 7.94 6 11 C2.90407165 7.4912812 1.25805377 4.50802601 0 0 Z " fill="#EB8676" transform="translate(183,136)"/>
<path d="M0 0 C-0.99 1.98 -1.98 3.96 -3 6 C-3.33 4.68 -3.66 3.36 -4 2 C-10.27 1.67 -16.54 1.34 -23 1 C-23 0.67 -23 0.34 -23 0 C-19.72966072 -0.19689005 -16.45872059 -0.38089008 -13.1875 -0.5625 C-12.25873047 -0.61857422 -11.32996094 -0.67464844 -10.37304688 -0.73242188 C-9.48037109 -0.78076172 -8.58769531 -0.82910156 -7.66796875 -0.87890625 C-6.84578857 -0.9260376 -6.0236084 -0.97316895 -5.17651367 -1.02172852 C-3 -1 -3 -1 0 0 Z " fill="#F9E8CC" transform="translate(222,191)"/>
<path d="M0 0 C0.99 0.33 1.98 0.66 3 1 C4.6875 4.5625 4.6875 4.5625 6 8 C4.125 9.0625 4.125 9.0625 2 10 C1.34 9.67 0.68 9.34 0 9 C0 6.03 0 3.06 0 0 Z " fill="#F08B65" transform="translate(121,174)"/>
<path d="M0 0 C0.55786268 1.59860649 1.09579568 3.20417905 1.625 4.8125 C1.92664063 5.70582031 2.22828125 6.59914062 2.5390625 7.51953125 C3 10 3 10 1 13 C-1.04219706 11.30820672 -1.91793306 10.36272334 -2.51171875 7.73828125 C-2.56972656 6.93777344 -2.62773437 6.13726562 -2.6875 5.3125 C-2.75324219 4.50425781 -2.81898438 3.69601563 -2.88671875 2.86328125 C-2.92410156 2.24839844 -2.96148437 1.63351563 -3 1 C-1 0 -1 0 0 0 Z " fill="#F8904F" transform="translate(220,167)"/>
<path d="M0 0 C0.99 0 1.98 0 3 0 C3 1.32 3 2.64 3 4 C4.65 4 6.3 4 8 4 C8 5.98 8 7.96 8 10 C6.25 9.9375 6.25 9.9375 4 9 C1.99159505 6.29950956 0 3.44873267 0 0 Z " fill="#ED9074" transform="translate(206,157)"/>
<path d="M0 0 C1.37478516 0.01740234 1.37478516 0.01740234 2.77734375 0.03515625 C3.69644531 0.04417969 4.61554688 0.05320313 5.5625 0.0625 C6.27277344 0.07410156 6.98304688 0.08570313 7.71484375 0.09765625 C8.04484375 0.75765625 8.37484375 1.41765625 8.71484375 2.09765625 C7.72484375 2.09765625 6.73484375 2.09765625 5.71484375 2.09765625 C6.04484375 2.75765625 6.37484375 3.41765625 6.71484375 4.09765625 C6.05484375 4.75765625 5.39484375 5.41765625 4.71484375 6.09765625 C4.71484375 5.43765625 4.71484375 4.77765625 4.71484375 4.09765625 C3.76609375 3.97390625 2.81734375 3.85015625 1.83984375 3.72265625 C-1.28515625 3.09765625 -1.28515625 3.09765625 -3.28515625 1.09765625 C-2.28515625 0.09765625 -2.28515625 0.09765625 0 0 Z " fill="#ED694E" transform="translate(186.28515625,133.90234375)"/>
<path d="M0 0 C1.32 0.33 2.64 0.66 4 1 C4 2.32 4 3.64 4 5 C4.33 4.34 4.66 3.68 5 3 C5.99 3 6.98 3 8 3 C8 4.98 8 6.96 8 9 C6.25 8.875 6.25 8.875 4 8 C0 2.77777778 0 2.77777778 0 0 Z " fill="#EFA377" transform="translate(125,173)"/>
<path d="M0 0 C0.33 0 0.66 0 1 0 C1.68912276 12.9019095 1.68912276 12.9019095 -1 16.8125 C-1.66 17.534375 -2.32 18.25625 -3 19 C-4.25541557 15.23375329 -3.37061958 13.62811066 -2 10 C-1.34 10 -0.68 10 0 10 C0 6.7 0 3.4 0 0 Z " fill="#F2C586" transform="translate(229,164)"/>
<path d="M0 0 C3.875 1.75 3.875 1.75 5 4 C4.91348369 5.54613014 4.75997364 7.08909387 4.5625 8.625 C4.46066406 9.44226563 4.35882813 10.25953125 4.25390625 11.1015625 C4.17011719 11.72804688 4.08632812 12.35453125 4 13 C3.34 13 2.68 13 2 13 C1.93941406 12.22914062 1.87882813 11.45828125 1.81640625 10.6640625 C1.73261719 9.66117188 1.64882812 8.65828125 1.5625 7.625 C1.48128906 6.62726563 1.40007812 5.62953125 1.31640625 4.6015625 C1.15034374 2.02072387 1.15034374 2.02072387 0 0 Z " fill="#F6CE90" transform="translate(165,114)"/>
<path d="M0 0 C0.66 0 1.32 0 2 0 C0.23570801 4.97209562 -2.3939166 9.43438061 -5 14 C-5.33 14 -5.66 14 -6 14 C-6 12.02 -6 10.04 -6 8 C-4.68 7.34 -3.36 6.68 -2 6 C-2 5.01 -2 4.02 -2 3 C-1.34 3 -0.68 3 0 3 C0 2.01 0 1.02 0 0 Z " fill="#F0B888" transform="translate(171,158)"/>
<path d="M0 0 C5.29500913 1.36157378 7.23745533 4.60343955 10 9 C9.67 9.66 9.34 10.32 9 11 C7.0625 9.75 7.0625 9.75 5 8 C4.87625 7.319375 4.7525 6.63875 4.625 5.9375 C4.315625 4.9784375 4.315625 4.9784375 4 4 C1.00384054 2.6954344 1.00384054 2.6954344 -2 2 C-1.34 1.34 -0.68 0.68 0 0 Z " fill="#F1C392" transform="translate(197,115)"/>
<path d="M0 0 C3.07423183 -0.35471906 5.94008528 -0.52666346 9 0 C13 4.48780488 13 4.48780488 13 8 C10 7 10 7 8.1875 4.5 C5.52405783 1.45606609 3.94721131 1.26912804 0 1 C0 0.67 0 0.34 0 0 Z " fill="#EFAC82" transform="translate(125,154)"/>
<path d="M0 0 C1.98 0.66 3.96 1.32 6 2 C6.33 5.3 6.66 8.6 7 12 C6.01 12 5.02 12 4 12 C4.268125 11.278125 4.53625 10.55625 4.8125 9.8125 C4.874375 8.884375 4.93625 7.95625 5 7 C2.62494782 4.29151077 2.62494782 4.29151077 0 2 C0 1.34 0 0.68 0 0 Z " fill="#F7A04F" transform="translate(196,117)"/>
<path d="M0 0 C0 3.72207387 -1.17964568 5.46395589 -3 8.6875 C-3.8353125 10.17830078 -3.8353125 10.17830078 -4.6875 11.69921875 C-5.3371875 12.83810547 -5.3371875 12.83810547 -6 14 C-6.33 12.68 -6.66 11.36 -7 10 C-6.34 10 -5.68 10 -5 10 C-5 8.68 -5 7.36 -5 6 C-4.34 6 -3.68 6 -3 6 C-2.814375 4.7934375 -2.814375 4.7934375 -2.625 3.5625 C-2.41875 2.716875 -2.2125 1.87125 -2 1 C-1.34 0.67 -0.68 0.34 0 0 Z " fill="#F1B792" transform="translate(178,186)"/>
<path d="M0 0 C1.875 0.125 1.875 0.125 4 1 C5.1875 3.9375 5.1875 3.9375 6 7 C6.33 7.66 6.66 8.32 7 9 C6.34 9.66 5.68 10.32 5 11 C4.16151196 9.54462432 3.32936066 8.08559627 2.5 6.625 C1.80390625 5.40683594 1.80390625 5.40683594 1.09375 4.1640625 C0 2 0 2 0 0 Z " fill="#F0AD86" transform="translate(214,171)"/>
<path d="M0 0 C2.64 0 5.28 0 8 0 C7.01 0.66 6.02 1.32 5 2 C5.33 3.65 5.66 5.3 6 7 C5.01 7 4.02 7 3 7 C1.25372522 4.38058783 0.61277612 2.96175123 0 0 Z " fill="#EA6D54" transform="translate(206,154)"/>
<path d="M0 0 C2.0625 0.4375 2.0625 0.4375 4 1 C3.34 2.32 2.68 3.64 2 5 C-0.64 5 -3.28 5 -6 5 C-4.73775586 2.47551173 -3.49988984 2.17182336 -1 1 C-0.67 0.67 -0.34 0.34 0 0 Z " fill="#F3794D" transform="translate(132,144)"/>
<path d="M0 0 C0.33 0 0.66 0 1 0 C1.13277344 0.62648437 1.26554688 1.25296875 1.40234375 1.8984375 C1.57894531 2.71570313 1.75554687 3.53296875 1.9375 4.375 C2.19853516 5.59316406 2.19853516 5.59316406 2.46484375 6.8359375 C2.92330693 9.029463 2.92330693 9.029463 4 11 C-1.53846154 10.38461538 -1.53846154 10.38461538 -3.875 8.4375 C-4.24625 7.963125 -4.6175 7.48875 -5 7 C-2.525 7.495 -2.525 7.495 0 8 C0 5.36 0 2.72 0 0 Z " fill="#EDAD9C" transform="translate(161,217)"/>
<path d="M0 0 C0.99 0.33 1.98 0.66 3 1 C3.68132451 2.66072849 4.34742127 4.327767 5 6 C5.99 6.66 6.98 7.32 8 8 C8.6875 10.125 8.6875 10.125 9 12 C5.37648747 10.79216249 4.84784764 9.70346858 2.8125 6.5625 C2.28269531 5.75941406 1.75289063 4.95632812 1.20703125 4.12890625 C0 2 0 2 0 0 Z " fill="#F0B490" transform="translate(126,214)"/>
<path d="M0 0 C0.33 0.99 0.66 1.98 1 3 C0.67 3.66 0.34 4.32 0 5 C0.66 5 1.32 5 2 5 C2 4.34 2 3.68 2 3 C2.66 3 3.32 3 4 3 C4.66 4.65 5.32 6.3 6 8 C3.33333333 8 0.66666667 8 -2 8 C-1.125 1.125 -1.125 1.125 0 0 Z " fill="#F29B69" transform="translate(131,191)"/>
<path d="M0 0 C1.98 0 3.96 0 6 0 C5.625 2.4375 5.625 2.4375 5 5 C4.01 5.495 4.01 5.495 3 6 C2.01 5.34 1.02 4.68 0 4 C0 2.68 0 1.36 0 0 Z " fill="#F06C4E" transform="translate(179,193)"/>
<path d="M0 0 C0.99 0.33 1.98 0.66 3 1 C3 2.32 3 3.64 3 5 C0.69 5.66 -1.62 6.32 -4 7 C-4 5.68 -4 4.36 -4 3 C-2.68 2.67 -1.36 2.34 0 2 C0 1.34 0 0.68 0 0 Z " fill="#F36A48" transform="translate(125,137)"/>
<path d="M0 0 C0.66 0 1.32 0 2 0 C2.680625 1.423125 2.680625 1.423125 3.375 2.875 C4.80238254 6.00313679 4.80238254 6.00313679 7 8 C5.02 8 3.04 8 1 8 C0.26919734 6.02253397 -0.39421747 4.01927511 -1 2 C-0.67 1.34 -0.34 0.68 0 0 Z " fill="#F66F4D" transform="translate(179,121)"/>
<path d="M0 0 C2.475 0.99 2.475 0.99 5 2 C5.33 4.97 5.66 7.94 6 11 C0 3.28571429 0 3.28571429 0 0 Z " fill="#F0A08D" transform="translate(195,177)"/>
<path d="M0 0 C0.99 0 1.98 0 3 0 C2.65978036 3.17538332 1.97533396 4.02276865 -0.4375 6.25 C-3 8 -3 8 -5 8 C-5 7.01 -5 6.02 -5 5 C-3.35178756 3.96986723 -1.68496298 2.96885372 0 2 C0 1.34 0 0.68 0 0 Z " fill="#F0B783" transform="translate(200,220)"/>
<path d="M0 0 C1.98 0.66 3.96 1.32 6 2 C6 3.98 6 5.96 6 8 C1.3125 4.38671875 1.3125 4.38671875 0 3 C0 2.01 0 1.02 0 0 Z " fill="#E98676" transform="translate(150,216)"/>
<path d="M0 0 C0.26252625 4.33168317 -0.70756464 7.8803623 -2 12 C-2.66 11.67 -3.32 11.34 -4 11 C-3.8864371 9.35333797 -3.75882619 7.70763918 -3.625 6.0625 C-3.55539063 5.14597656 -3.48578125 4.22945312 -3.4140625 3.28515625 C-3.27742187 2.53105469 -3.14078125 1.77695313 -3 1 C-1 0 -1 0 0 0 Z " fill="#ED5C4B" transform="translate(154,205)"/>
<path d="M0 0 C0.66 0.33 1.32 0.66 2 1 C2 2.98 2 4.96 2 7 C0.35 7.66 -1.3 8.32 -3 9 C-2.44271087 5.65626525 -1.64826111 2.96687001 0 0 Z " fill="#555555" transform="translate(268,144)"/>
<path d="M0 0 C0.66 0.33 1.32 0.66 2 1 C2.73075648 3.3140622 3.40138258 5.64828869 4 8 C-0.75 7.25 -0.75 7.25 -3 5 C-2.01 5 -1.02 5 0 5 C0 3.35 0 1.7 0 0 Z " fill="#F5AC5C" transform="translate(214,142)"/>
<path d="M0 0 C0.99 0.33 1.98 0.66 3 1 C3 2.32 3 3.64 3 5 C4.32 5.66 5.64 6.32 7 7 C6.34 8.32 5.68 9.64 5 11 C4.16151196 9.54462432 3.32936066 8.08559627 2.5 6.625 C1.80390625 5.40683594 1.80390625 5.40683594 1.09375 4.1640625 C0 2 0 2 0 0 Z " fill="#ECA295" transform="translate(108,183)"/>
<path d="M0 0 C0.66 0.99 1.32 1.98 2 3 C1.34 4.32 0.68 5.64 0 7 C-0.66 7 -1.32 7 -2 7 C-2.66 8.98 -3.32 10.96 -4 13 C-5.39195915 8.82412255 -3.82323219 6.86525224 -2 3 C-1.34 3 -0.68 3 0 3 C0 2.01 0 1.02 0 0 Z " fill="#EF8353" transform="translate(170,169)"/>
<path d="M0 0 C2 2 2 2 2.5 5.5625 C2.665 6.696875 2.83 7.83125 3 9 C3.66 9.33 4.32 9.66 5 10 C4.01 10 3.02 10 2 10 C-1.07692308 4.58461538 -1.07692308 4.58461538 -0.6875 1.625 C-0.460625 1.08875 -0.23375 0.5525 0 0 Z " fill="#E99184" transform="translate(140,195)"/>
<path d="M0 0 C1.25541557 3.76624671 0.37061958 5.37188934 -1 9 C-1.66 9 -2.32 9 -3 9 C-3 8.01 -3 7.02 -3 6 C-3.66 6 -4.32 6 -5 6 C-5 5.34 -5 4.68 -5 4 C-3.37373596 2.61767557 -1.7074998 1.28062485 0 0 Z " fill="#F69F54" transform="translate(138,173)"/>
<path d="M0 0 C0.66 0 1.32 0 2 0 C2.33 1.98 2.66 3.96 3 6 C1.02 6 -0.96 6 -3 6 C-3 5.34 -3 4.68 -3 4 C-2.34 4 -1.68 4 -1 4 C-0.67 2.68 -0.34 1.36 0 0 Z " fill="#ED8754" transform="translate(204,182)"/>
<path d="M0 0 C0.33 0 0.66 0 1 0 C0.38461538 6.52307692 0.38461538 6.52307692 -1.5625 8.9375 C-2.036875 9.288125 -2.51125 9.63875 -3 10 C-2.67 7.36 -2.34 4.72 -2 2 C-1.34 2 -0.68 2 0 2 C0 1.34 0 0.68 0 0 Z " fill="#F3BE82" transform="translate(187,167)"/>
<path d="M0 0 C0.99 0.33 1.98 0.66 3 1 C2.01 3.97 1.02 6.94 0 10 C-0.33 10 -0.66 10 -1 10 C-1.125 2.25 -1.125 2.25 0 0 Z " fill="#EE927E" transform="translate(148,196)"/>
<path d="M0 0 C2.45234885 0.98093954 3.7809268 1.68703828 5.3125 3.875 C6.12082372 6.37345514 5.71847013 7.52928976 5 10 C4.16121545 8.71186658 3.32913217 7.41936744 2.5 6.125 C2.0359375 5.40570313 1.571875 4.68640625 1.09375 3.9453125 C0 2 0 2 0 0 Z " fill="#EFA896" transform="translate(114,194)"/>
<path d="M0 0 C0.33 0.66 0.66 1.32 1 2 C0.22265625 4.1640625 0.22265625 4.1640625 -0.9375 6.625 C-1.31777344 7.44226563 -1.69804687 8.25953125 -2.08984375 9.1015625 C-2.39019531 9.72804687 -2.69054687 10.35453125 -3 11 C-3.66 11 -4.32 11 -5 11 C-3.77472971 6.94718288 -2.30119506 3.55639236 0 0 Z " fill="#EEAC91" transform="translate(167,172)"/>
<path d="M0 0 C2.97246802 2.54782974 4.41535288 5.45340883 6 9 C6 9.66 6 10.32 6 11 C5.01 11 4.02 11 3 11 C2.67 8.69 2.34 6.38 2 4 C1.34 4 0.68 4 0 4 C0 2.68 0 1.36 0 0 Z " fill="#EBA087" transform="translate(116,163)"/>
<path d="M0 0 C0.66 0.33 1.32 0.66 2 1 C1.195625 1.61875 0.39125 2.2375 -0.4375 2.875 C-3.03874519 4.74164041 -3.03874519 4.74164041 -4 7 C-4.99 7 -5.98 7 -7 7 C-5.55609075 3.19333016 -3.65047197 1.73397418 0 0 Z " fill="#737373" transform="translate(408,156)"/>
<path d="M0 0 C1.9375 0.625 1.9375 0.625 4 2 C4.75 5.125 4.75 5.125 5 8 C4.34 8 3.68 8 3 8 C0 2.25 0 2.25 0 0 Z " fill="#E99988" transform="translate(175,122)"/>
<path d="M0 0 C1.65 0.99 3.3 1.98 5 3 C3 5 3 5 0.8359375 5.1953125 C-0.38222656 5.16050781 -0.38222656 5.16050781 -1.625 5.125 C-2.44226563 5.10695312 -3.25953125 5.08890625 -4.1015625 5.0703125 C-4.72804687 5.04710937 -5.35453125 5.02390625 -6 5 C-6 4.67 -6 4.34 -6 4 C-4.02 3.67 -2.04 3.34 0 3 C0 2.01 0 1.02 0 0 Z " fill="#F6E9D4" transform="translate(152,225)"/>
<path d="M0 0 C0.99 0 1.98 0 3 0 C3.33 2.31 3.66 4.62 4 7 C2.68 6.34 1.36 5.68 0 5 C0 3.35 0 1.7 0 0 Z " fill="#FAA14C" transform="translate(198,213)"/>
<path d="M0 0 C0.99 0 1.98 0 3 0 C1.7508258 3.45925163 0.32472205 6.14693203 -2 9 C-2.20140476 5.37471432 -1.85776765 3.13498292 0 0 Z " fill="#F5BC88" transform="translate(181,177)"/>
<path d="M0 0 C0.66 0 1.32 0 2 0 C3.125 5.75 3.125 5.75 2 8 C1.34 8 0.68 8 0 8 C0 5.36 0 2.72 0 0 Z " fill="#EDA06D" transform="translate(162,168)"/>
<path d="M0 0 C0.66 0.33 1.32 0.66 2 1 C1.67 2.65 1.34 4.3 1 6 C0.34 6 -0.32 6 -1 6 C-1 7.65 -1 9.3 -1 11 C-1.33 11 -1.66 11 -2 11 C-1.85892253 9.54119891 -1.71197585 8.08296449 -1.5625 6.625 C-1.48128906 5.81289062 -1.40007812 5.00078125 -1.31640625 4.1640625 C-1 2 -1 2 0 0 Z " fill="#EE9791" transform="translate(166,213)"/>
<path d="M0 0 C2.72426311 2.35277269 3.8141763 4.62496331 5 8 C2.5625 7.1875 2.5625 7.1875 0 6 C-1 3 -1 3 0 0 Z " fill="#F5BF8D" transform="translate(142,208)"/>
<path d="M0 0 C4.42857143 5.14285714 4.42857143 5.14285714 5 9 C2 8 2 8 0.8125 6.1875 C0 4 0 4 0 0 Z " fill="#F1B990" transform="translate(137,199)"/>
<path d="M0 0 C0 3.86695678 -1.41909971 6.5088452 -3 10 C-3.66 10 -4.32 10 -5 10 C-3.66511872 6.40608886 -2.03977277 3.24509304 0 0 Z " fill="#ECA793" transform="translate(161,183)"/>
<path d="M0 0 C0.66 0 1.32 0 2 0 C1.67 2.64 1.34 5.28 1 8 C0.34 8 -0.32 8 -1 8 C-1.66 6.35 -2.32 4.7 -3 3 C-2.01 3.33 -1.02 3.66 0 4 C0 2.68 0 1.36 0 0 Z " fill="#F2D3B2" transform="translate(135,182)"/>
<path d="M0 0 C0.99 0.33 1.98 0.66 3 1 C3.33 3.31 3.66 5.62 4 8 C3.01 7.67 2.02 7.34 1 7 C0.67 4.69 0.34 2.38 0 0 Z " fill="#F8A055" transform="translate(135,161)"/>
<path d="M0 0 C0.66 0.33 1.32 0.66 2 1 C2 2.98 2 4.96 2 7 C0.68 7 -0.64 7 -2 7 C-2 6.01 -2 5.02 -2 4 C-1.34 4 -0.68 4 0 4 C0 2.68 0 1.36 0 0 Z " fill="#EE8655" transform="translate(158,151)"/>
<path d="M0 0 C1.0828125 0.37125 1.0828125 0.37125 2.1875 0.75 C-1.5625 2.75 -1.5625 2.75 -3.8125 2.75 C-3.8125 3.41 -3.8125 4.07 -3.8125 4.75 C-5.1325 4.42 -6.4525 4.09 -7.8125 3.75 C-3.50480769 -0.31153846 -3.50480769 -0.31153846 0 0 Z " fill="#909090" transform="translate(710.8125,186.25)"/>
<path d="M0 0 C0.99 0 1.98 0 3 0 C2.34 1.65 1.68 3.3 1 5 C-1.31 4.67 -3.62 4.34 -6 4 C-6 3.67 -6 3.34 -6 3 C-5.195625 2.87625 -4.39125 2.7525 -3.5625 2.625 C-2.716875 2.41875 -1.87125 2.2125 -1 2 C-0.67 1.34 -0.34 0.68 0 0 Z " fill="#808080" transform="translate(668,164)"/>
<path d="M0 0 C0.66 0.33 1.32 0.66 2 1 C1.67 2.32 1.34 3.64 1 5 C1.99 5 2.98 5 4 5 C4 5.66 4 6.32 4 7 C1.525 6.01 1.525 6.01 -1 5 C-0.67 3.35 -0.34 1.7 0 0 Z " fill="#EB7057" transform="translate(190,142)"/>
</svg>
